<?xml version="1.0" encoding="UTF-8"?>
<svg version="1.1" xmlns="http://www.w3.org/2000/svg" width="128" height="128">
<path d="M0 0 C2.70746309 0.04473307 5.41403634 0.06154915 8.12182617 0.07348633 C9.8412402 0.08688638 11.56064324 0.10180263 13.2800293 0.1184082 C14.49543648 0.1294886 14.49543648 0.1294886 15.73539734 0.14079285 C21.36860793 0.23823684 21.36860793 0.23823684 22.48706055 1.35668945 C22.51361444 2.73159087 22.53324626 4.10662841 22.54956055 5.48168945 C22.84017955 8.42017047 23.06208591 9.89638685 25.0847168 12.0871582 C26.48408458 13.1791504 27.88523982 14.26885452 29.2878418 15.35668945 C37.19540332 22.54793546 41.22363932 33.60582464 41.79956055 44.0402832 C42.11776755 53.444674 41.97157002 61.86266528 37.48706055 70.35668945 C37.06295898 71.20231445 36.63885742 72.04793945 36.2019043 72.91918945 C29.33042579 85.47542873 19.27081101 92.37718351 6.1159668 97.23168945 C-5.23852833 100.32251611 -17.8437055 99.07603375 -28.51293945 94.35668945 C-31.50658452 92.53496065 -34.36030714 90.64150203 -37.1730957 88.55200195 C-37.94524414 88.15754883 -38.71739258 87.7630957 -39.51293945 87.35668945 C-41.81472825 88.03983121 -41.81472825 88.03983121 -43.51293945 89.35668945 C-43.62527539 93.09002651 -43.62527539 93.09002651 -43.11816406 95.66601562 C-43.76035 100.04296749 -46.77387248 102.37053035 -49.8293457 105.4074707 C-50.80326515 106.39568062 -50.80326515 106.39568062 -51.79685974 107.40385437 C-53.17349231 108.79264718 -54.55666219 110.17498589 -55.94580078 111.55126953 C-58.0645948 113.65840447 -60.14946431 115.7954548 -62.23364258 117.93676758 C-63.57609934 119.28311009 -64.92044112 120.6275762 -66.2668457 121.9699707 C-66.88693008 122.61049881 -67.50701447 123.25102692 -68.14588928 123.91096497 C-71.35193948 127.03361885 -72.76469798 128.26564068 -77.34106445 128.82250977 C-80.52103574 128.35550044 -81.76076563 128.06694034 -83.95043945 125.79418945 C-84.69100586 125.08069336 -84.69100586 125.08069336 -85.4465332 124.3527832 C-87.16103469 121.14358812 -86.95104868 118.95708392 -86.51293945 115.35668945 C-84.74412757 112.57735905 -82.48559571 110.39466657 -80.1262207 108.1105957 C-79.14518623 107.12663063 -79.14518623 107.12663063 -78.14433289 106.12278748 C-76.76135338 104.74379946 -75.36974496 103.37341832 -73.97021484 102.01123047 C-71.82897943 99.92264239 -69.72164345 97.80380662 -67.61645508 95.67895508 C-66.26744041 94.34175236 -64.91658865 93.00639988 -63.5637207 91.6730957 C-62.93331375 91.03884171 -62.3029068 90.40458771 -61.65339661 89.75111389 C-57.19381219 85.45658703 -57.19381219 85.45658703 -53.82226562 84.96191406 C-53.06018799 85.09218994 -52.29811035 85.22246582 -51.51293945 85.35668945 C-50.19293945 85.35668945 -48.87293945 85.35668945 -47.51293945 85.35668945 C-46.13707283 83.71988425 -46.13707283 83.71988425 -45.51293945 81.35668945 C-46.95895699 78.43321067 -46.95895699 78.43321067 -49.20043945 75.41918945 C-56.46000927 64.47399188 -57.99806331 52.17088294 -56.04418945 39.2590332 C-53.03492893 25.37702779 -45.38112097 14.50619682 -33.63793945 6.48168945 C-22.56275511 0.48872462 -12.3198931 -0.203644 0 0 Z " fill="#54A0FD" transform="translate(86.512939453125,-0.356689453125)"/>
<path d="M0 0 C1.27875 0.00257812 2.5575 0.00515625 3.875 0.0078125 C5.15375 0.00523438 6.4325 0.00265625 7.75 0 C10.875 0.1328125 10.875 0.1328125 11.875 1.1328125 C11.98249161 3.46895073 12.02494958 5.77485017 12.02368164 8.11181641 C12.02692444 8.84198975 12.03016724 9.57216309 12.0335083 10.32446289 C12.05823371 17.98111579 12.01293675 25.63796763 11.96264648 33.29443359 C11.94104577 36.92627672 11.94122007 40.55711399 11.96069336 44.18896484 C11.98401021 48.573871 11.96828876 52.95703802 11.92513847 57.3417778 C11.9152072 59.0106191 11.91887106 60.67960057 11.93660164 62.34837723 C12.05947649 75.39277266 12.05947649 75.39277266 9.1257782 79.70248413 C5.69843401 82.77399588 1.91986299 84.99281229 -2.4375 86.5078125 C-3.25863281 86.80429688 -4.07976562 87.10078125 -4.92578125 87.40625 C-5.65152344 87.64601563 -6.37726563 87.88578125 -7.125 88.1328125 C-8.61 88.6278125 -8.61 88.6278125 -10.125 89.1328125 C-11.68618428 89.20022115 -13.2500252 89.21795706 -14.8125 89.1953125 C-15.62074219 89.18628906 -16.42898437 89.17726563 -17.26171875 89.16796875 C-17.87660156 89.15636719 -18.49148437 89.14476563 -19.125 89.1328125 C-19.14812484 79.63206925 -19.1659158 70.13133562 -19.17681217 60.63057041 C-19.18204069 56.21944246 -19.18913777 51.8083337 -19.20043945 47.3972168 C-19.21126944 43.14380135 -19.21727707 38.89040441 -19.21987724 34.63697624 C-19.22173129 33.01059617 -19.22535152 31.38421716 -19.23073006 29.75784492 C-19.23794198 27.48771057 -19.23899088 25.21765365 -19.23852539 22.94750977 C-19.240746 21.65289322 -19.24296661 20.35827667 -19.24525452 19.02442932 C-19.125 16.1328125 -19.125 16.1328125 -18.125 15.1328125 C-15.77186445 15.06009509 -13.41666332 15.04910382 -11.0625 15.0703125 C-9.77214844 15.07933594 -8.48179688 15.08835937 -7.15234375 15.09765625 C-6.15332031 15.10925781 -5.15429688 15.12085938 -4.125 15.1328125 C-4.13660156 14.13378906 -4.14820312 13.13476562 -4.16015625 12.10546875 C-4.16917969 10.81511719 -4.17820312 9.52476563 -4.1875 8.1953125 C-4.19910156 6.90753906 -4.21070312 5.61976562 -4.22265625 4.29296875 C-4.09537209 0.17405331 -4.09537209 0.17405331 0 0 Z " fill="#ED5253" transform="translate(97.125,-0.1328125)"/>
<path d="M0 0 C4.29 0 8.58 0 13 0 C13 19.8 13 39.6 13 60 C0.53971708 58.86724701 0.53971708 58.86724701 -3.1875 56.875 C-3.92355469 56.50117187 -4.65960938 56.12734375 -5.41796875 55.7421875 C-6.69607422 54.87980469 -6.69607422 54.87980469 -8 54 C-8.68006104 53.6095752 -9.36012207 53.21915039 -10.06079102 52.81689453 C-13.95764657 50.15800582 -15.75838273 48.27026267 -16.6574707 43.54345703 C-16.82424333 39.37439745 -16.74771376 35.28924618 -16.5625 31.125 C-16.53090489 29.67194882 -16.50287717 28.21881545 -16.47851562 26.765625 C-16.24633664 16.24633664 -16.24633664 16.24633664 -15 15 C-12.64686445 14.92728259 -10.29166332 14.91629132 -7.9375 14.9375 C-6.64714844 14.94652344 -5.35679688 14.95554687 -4.02734375 14.96484375 C-3.02832031 14.97644531 -2.02929688 14.98804688 -1 15 C-1.01160156 14.00097656 -1.02320313 13.00195312 -1.03515625 11.97265625 C-1.04417969 10.68230469 -1.05320312 9.39195313 -1.0625 8.0625 C-1.07410156 6.77472656 -1.08570313 5.48695312 -1.09765625 4.16015625 C-1 1 -1 1 0 0 Z " fill="#16BA8C" transform="translate(65,29)"/>
<path d="M0 0 C0 1.32 0 2.64 0 4 C-4.62 4.33 -9.24 4.66 -14 5 C-14.33 9.29 -14.66 13.58 -15 18 C-21.435 18.495 -21.435 18.495 -28 19 C-28.33 23.62 -28.66 28.24 -29 33 C-33.62 33.33 -38.24 33.66 -43 34 C-43.33 43.9 -43.66 53.8 -44 64 C-48.52307692 59.47692308 -48.52307692 59.47692308 -50.125 56.125 C-50.59292969 55.16980469 -50.59292969 55.16980469 -51.0703125 54.1953125 C-55.28205571 44.24993568 -55.90997874 32.66640942 -51.9375 22.5 C-47.47207365 13.36901614 -41.94436994 6.88820218 -33 2 C-32.28585938 1.58621094 -31.57171875 1.17242187 -30.8359375 0.74609375 C-22.29618234 -3.46509135 -8.67407653 -4.3283815 0 0 Z " fill="#AAD5FA" transform="translate(93,11)"/>
<path d="M0 0 C4.62 0 9.24 0 14 0 C14 23.76 14 47.52 14 72 C7.25 74.25 7.25 74.25 3.125 74.125 C2.34382813 74.10695313 1.56265625 74.08890625 0.7578125 74.0703125 C0.17773438 74.04710938 -0.40234375 74.02390625 -1 74 C-1.02312484 64.49925675 -1.0409158 54.99852312 -1.05181217 45.49775791 C-1.05704069 41.08662996 -1.06413777 36.6755212 -1.07543945 32.2644043 C-1.08626944 28.01098885 -1.09227707 23.75759191 -1.09487724 19.50416374 C-1.09673129 17.87778367 -1.10035152 16.25140466 -1.10573006 14.62503242 C-1.11294198 12.35489807 -1.11399088 10.08484115 -1.11352539 7.81469727 C-1.115746 6.52008072 -1.11796661 5.22546417 -1.12025452 3.89161682 C-1 1 -1 1 0 0 Z " fill="#FDC957" transform="translate(79,15)"/>
<path d="M0 0 C3.26656 0.80506873 4.26314449 2.86902338 6.18823242 5.53930664 C7.30198242 6.28180664 7.30198242 6.28180664 8.43823242 7.03930664 C10.18823242 8.53930664 10.18823242 8.53930664 10.69238281 10.69238281 C9.90235128 15.15366985 7.0126733 17.46829146 3.87182617 20.59008789 C3.22254654 21.2488945 2.57326691 21.90770111 1.90431213 22.58647156 C0.52767957 23.97526437 -0.85549031 25.35760308 -2.24462891 26.73388672 C-4.36342292 28.84102166 -6.44829243 30.97807199 -8.5324707 33.11938477 C-9.87492747 34.46572728 -11.21926924 35.81019338 -12.56567383 37.15258789 C-13.18575821 37.793116 -13.80584259 38.4336441 -14.44471741 39.09358215 C-17.65076761 42.21623604 -19.0635261 43.44825787 -23.63989258 44.00512695 C-26.81986386 43.53811762 -28.05959375 43.24955752 -30.24926758 40.97680664 C-30.98983398 40.26331055 -30.98983398 40.26331055 -31.74536133 39.53540039 C-33.45986281 36.3262053 -33.2498768 34.1397011 -32.81176758 30.53930664 C-31.0429557 27.75997624 -28.78442384 25.57728376 -26.42504883 23.29321289 C-25.77102585 22.63723618 -25.11700287 21.98125946 -24.44316101 21.30540466 C-23.0601815 19.92641665 -21.66857308 18.55603551 -20.26904297 17.19384766 C-18.12780755 15.10525958 -16.02047157 12.98642381 -13.9152832 10.86157227 C-12.56626853 9.52436955 -11.21541677 8.18901706 -9.86254883 6.85571289 C-9.23214188 6.22145889 -8.60173492 5.5872049 -7.95222473 4.93373108 C-3.53244419 0.67753488 -3.53244419 0.67753488 0 0 Z " fill="#EF5354" transform="translate(32.811767578125,84.460693359375)"/>
<path d="M0 0 C0 0.33 0 0.66 0 1 C-1.25103516 1.23783203 -1.25103516 1.23783203 -2.52734375 1.48046875 C-15.5072016 4.17159621 -25.73695715 9.57774966 -33.82421875 20.453125 C-35.36087246 22.91486746 -36.69936563 25.40686023 -38 28 C-38.4125 28.69867187 -38.825 29.39734375 -39.25 30.1171875 C-44.03560687 39.45576757 -43.33154414 52.38716282 -41.3046875 62.453125 C-40.39504626 65.1285404 -39.33047903 67.50950956 -38 70 C-37.5875 70.84433594 -37.175 71.68867187 -36.75 72.55859375 C-31.40668972 82.53176094 -22.68557458 90.20498396 -12 94 C-7.3636407 95.195387 -2.71373233 96.16456905 2 97 C2 97.33 2 97.66 2 98 C-10.06683198 98.98060034 -20.02661242 95.35165934 -29.66015625 88.1953125 C-30.43230469 87.80085938 -31.20445313 87.40640625 -32 87 C-34.20558586 87.63660275 -34.20558586 87.63660275 -36 89 C-37.33333333 89.66666667 -38.66666667 90.33333333 -40 91 C-40.66 89.68 -41.32 88.36 -42 87 C-40.68 85.68 -39.36 84.36 -38 83 C-39.2920912 79.48847943 -40.85317725 76.59731421 -42.9375 73.5 C-49.7675741 62.22787282 -50.62756773 48.57285709 -47.875 35.875 C-44.16633115 22.88611371 -36.07992198 11.76478443 -24.1875 5.02734375 C-16.18019576 1.26677051 -8.85923271 -0.70560261 0 0 Z " fill="#368EF0" transform="translate(79,0)"/>
<path d="M0 0 C4.62 0 9.24 0 14 0 C14 13.86 14 27.72 14 42 C10.14592666 40.45837066 7.94590365 39.42429683 4.8125 37 C4.13832031 36.484375 3.46414062 35.96875 2.76953125 35.4375 C1 34 1 34 -1 32 C-1.24291992 28.94311523 -1.24291992 28.94311523 -1.23046875 25.05859375 C-1.23001053 24.37571793 -1.22955231 23.6928421 -1.2290802 22.98927307 C-1.22605891 21.54597231 -1.21817622 20.10267478 -1.20581055 18.65942383 C-1.1875433 16.44275447 -1.18530093 14.22650242 -1.18554688 12.00976562 C-1.14742468 1.14742468 -1.14742468 1.14742468 0 0 Z " fill="#556A77" transform="translate(50,44)"/>
<path d="M0 0 C1.65 0 3.3 0 5 0 C5 27.72 5 55.44 5 84 C3.02 84.99 1.04 85.98 -1 87 C-1.02312269 75.80426756 -1.04091471 64.60854076 -1.05181217 53.41278934 C-1.05704116 48.21471885 -1.0641391 43.01666464 -1.07543945 37.81860352 C-1.08626776 32.80657732 -1.09227671 27.79456682 -1.09487724 22.78252983 C-1.09673159 20.86587718 -1.1003524 18.94922543 -1.10573006 17.03257942 C-1.11293975 14.35771928 -1.11399097 11.68292486 -1.11352539 9.00805664 C-1.11712067 8.2074884 -1.12071594 7.40692017 -1.12442017 6.58209229 C-1.11405216 1.11405216 -1.11405216 1.11405216 0 0 Z " fill="#D94248" transform="translate(94,0)"/>
<path d="M0 0 C0.33 0 0.66 0 1 0 C1.02578125 0.88042969 1.0515625 1.76085938 1.078125 2.66796875 C1.13484375 3.82941406 1.1915625 4.99085937 1.25 6.1875 C1.29640625 7.33605469 1.3428125 8.48460937 1.390625 9.66796875 C2.09568946 13.52322504 3.37160122 15.15673212 6 18 C11.85799967 26.56169183 12.15637443 36.98113533 11 47 C9.10520518 54.51654143 5.97395852 61.05888288 1 67 C0.67 67 0.34 67 0 67 C0 44.89 0 22.78 0 0 Z " fill="#ADCBF0" transform="translate(108,10)"/>
<path d="M0 0 C1.65 0 3.3 0 5 0 C5 24.42 5 48.84 5 74 C3.02 74 1.04 74 -1 74 C-1.02312484 64.49925675 -1.0409158 54.99852312 -1.05181217 45.49775791 C-1.05704069 41.08662996 -1.06413777 36.6755212 -1.07543945 32.2644043 C-1.08626944 28.01098885 -1.09227707 23.75759191 -1.09487724 19.50416374 C-1.09673129 17.87778367 -1.10035152 16.25140466 -1.10573006 14.62503242 C-1.11294198 12.35489807 -1.11399088 10.08484115 -1.11352539 7.81469727 C-1.115746 6.52008072 -1.11796661 5.22546417 -1.12025452 3.89161682 C-1 1 -1 1 0 0 Z " fill="#E9B743" transform="translate(79,15)"/>
<path d="M0 0 C-2.751124 1.40668331 -5.53143158 2.6677306 -8.375 3.875 C-19.12979161 8.69005376 -25.5282873 15.57428083 -30.06640625 26.40625 C-33.39206721 35.6457432 -32.32657356 44.69370577 -30 54 C-29.67 48.39 -29.34 42.78 -29 37 C-28.67 37 -28.34 37 -28 37 C-28 46.57 -28 56.14 -28 66 C-32.52307692 61.47692308 -32.52307692 61.47692308 -34.125 58.125 C-34.59292969 57.16980469 -34.59292969 57.16980469 -35.0703125 56.1953125 C-39.28205571 46.24993568 -39.90997874 34.66640942 -35.9375 24.5 C-30.05218101 12.46559423 -21.84862769 5.39627797 -9.375 0.6796875 C-6.08556721 -0.26169623 -3.39594017 -0.29529915 0 0 Z " fill="#8AC1FC" transform="translate(77,9)"/>
<path d="M0 0 C1.12894876 0.93274109 2.25300876 1.87140122 3.375 2.8125 C4.00148438 3.33457031 4.62796875 3.85664062 5.2734375 4.39453125 C7 6 7 6 9 9 C6.34171881 11.86200663 3.64409842 14.68370487 0.9375 17.5 C0.18533203 18.31082031 -0.56683594 19.12164062 -1.34179688 19.95703125 C-7.04366709 25.83168541 -7.04366709 25.83168541 -11.90625 26.6875 C-15 26 -15 26 -17.4375 23.5 C-17.953125 22.675 -18.46875 21.85 -19 21 C-15.7547038 15.63020577 -11.72793359 11.49288986 -7.25 7.125 C-6.20392578 6.09246094 -6.20392578 6.09246094 -5.13671875 5.0390625 C-3.42896657 3.35470418 -1.71670557 1.67522383 0 0 Z " fill="#FE6A6A" transform="translate(21,102)"/>
<path d="M0 0 C1.65 0 3.3 0 5 0 C5 18.81 5 37.62 5 57 C3.35 57 1.7 57 0 57 C0 38.19 0 19.38 0 0 Z " fill="#11AA7B" transform="translate(64,30)"/>
<path d="M0 0 C1.32 0 2.64 0 4 0 C4 11.88 4 23.76 4 36 C-1 32 -1 32 -1.58349609 28.71606445 C-1.56367676 27.444646 -1.54385742 26.17322754 -1.5234375 24.86328125 C-1.51873444 24.18323532 -1.51403137 23.50318939 -1.50918579 22.80253601 C-1.48789177 20.63814614 -1.43128831 18.47623221 -1.375 16.3125 C-1.35848847 14.84572613 -1.34414153 13.37892619 -1.33203125 11.91210938 C-1.19593375 1.19593375 -1.19593375 1.19593375 0 0 Z " fill="#3E4B5A" transform="translate(50,44)"/>
<path d="M0 0 C5.84615385 2.92307692 5.84615385 2.92307692 8 5 C8.6875 7.25 8.6875 7.25 8 10 C5.859155 12.5552021 3.49371368 14.79255447 1 17 C-0.12894876 16.06725891 -1.25300876 15.12859878 -2.375 14.1875 C-3.00148438 13.66542969 -3.62796875 13.14335938 -4.2734375 12.60546875 C-6 11 -6 11 -8 8 C-5.36 5.36 -2.72 2.72 0 0 Z " fill="#FE6A6A" transform="translate(35,88)"/>
<path d="M0 0 C2.1875 0.625 2.1875 0.625 4.1875 3.625 C2.94875579 4.803611 1.6960199 5.96752915 0.4375 7.125 C-0.25859375 7.7746875 -0.9546875 8.424375 -1.671875 9.09375 C-3.8125 10.625 -3.8125 10.625 -7.8125 10.625 C-8.4725 9.635 -9.1325 8.645 -9.8125 7.625 C-3.81285286 0.84730064 -3.81285286 0.84730064 0 0 Z " fill="#EF5455" transform="translate(32.8125,84.375)"/>
<path d="M0 0 C1.32 0.66 2.64 1.32 4 2 C2.70700306 4.88437779 1.34058637 6.87219421 -1 9 C-2.32 8.34 -3.64 7.68 -5 7 C-3.70700306 4.11562221 -2.34058637 2.12780579 0 0 Z " fill="#E0E7F7" transform="translate(42,82)"/>
<path d="M0 0 C1.32 0.66 2.64 1.32 4 2 C4 2.99 4 3.98 4 5 C1.5 7.1875 1.5 7.1875 -1 9 C-1.99 8.01 -2.98 7.02 -4 6 C-2.84826645 3.53199953 -1.95216435 1.95216435 0 0 Z " fill="#DA3C43" transform="translate(22,93)"/>
</svg>
