<?xml version="1.0" encoding="UTF-8"?>
<svg version="1.1" xmlns="http://www.w3.org/2000/svg" width="128" height="128">
<path d="M0 0 C0.58094421 0.63693787 1.16188843 1.27387573 1.76043701 1.93011475 C4.71368321 4.65961188 7.55133714 5.01304436 11.39550781 5.55566406 C12.13426651 5.67329102 12.87302521 5.79091797 13.63417053 5.91210938 C16.07163635 6.29597022 18.51196183 6.65609301 20.953125 7.015625 C22.65479757 7.27768455 24.35627256 7.54103003 26.05755615 7.80560303 C29.6236694 8.35672976 33.19119898 8.89697284 36.76025391 9.42871094 C41.31979741 10.10821291 45.87607113 10.80716577 50.43153763 11.51343155 C53.94646595 12.05742831 57.46239686 12.5946804 60.97872162 13.12957001 C62.65811167 13.38513233 64.33731953 13.64189511 66.01633453 13.89990997 C68.3723053 14.26015761 70.72935598 14.61222407 73.08691406 14.96191406 C73.77187454 15.06783875 74.45683502 15.17376343 75.16255188 15.28289795 C79.84486855 15.96533794 84.28347637 16.24161072 89 16 C90.35432675 14.68799596 91.68733482 13.35368596 93 12 C97.58249589 10.89133164 99.85787576 10.61210875 104.3125 12.125 C107.34613174 14.24148726 108.60126781 15.58087687 110 19 C110.53348798 23.97922113 110.16955197 27.06538376 107 31 C104.09799637 33.33772514 102.27699106 33.96474659 98.5625 34.4375 C94.2947709 33.91339292 92.21615776 32.83328184 89 30 C88.3359375 27.35546875 88.3359375 27.35546875 88 25 C86.77007324 24.83781982 85.54014648 24.67563965 84.27294922 24.50854492 C68.53142783 22.40921225 52.83522409 20.03523932 37.13922119 17.62194824 C33.72583088 17.09754326 30.31211851 16.57524302 26.8984375 16.05273438 C20.26531896 15.03714715 13.63254315 14.01933804 7 13 C9.22886871 15.70857866 11.45814945 18.41681792 13.6875 21.125 C14.31333984 21.88554687 14.93917969 22.64609375 15.58398438 23.4296875 C16.81584383 24.92597752 18.05113578 26.41944902 19.29003906 27.90991211 C20.36333952 29.22180892 21.41583187 30.55130939 22.43652344 31.90454102 C23.81217796 33.76013607 23.81217796 33.76013607 26 36 C29.5924409 35.79055323 29.5924409 35.79055323 31.94921875 35.2578125 C35.58807728 34.800356 37.91860808 36.19767642 41 38 C44.93047365 41.67413842 46.54443624 44.57144492 47.15234375 49.77734375 C47 52 47 52 45.6328125 55.3203125 C44.64875784 58.77788148 44.64875784 58.77788148 45.94067383 60.74536133 C47.51452789 62.59681517 49.17389557 64.26584477 50.9375 65.9375 C52.15186772 67.15803284 53.36541526 68.37938229 54.578125 69.6015625 C55.16916016 70.18325195 55.76019531 70.76494141 56.36914062 71.36425781 C58.98461201 73.98755995 61.34609064 76.81345952 63.73046875 79.64453125 C64.97791187 81.13358089 64.97791187 81.13358089 67 82 C67.66 81.67 68.32 81.34 69 81 C68.79658623 78.52156384 68.57576846 76.04590601 68.33984375 73.5703125 C68.15819295 71.66193517 67.97949821 69.75319647 67.82080078 67.84277344 C67.62759317 65.53903083 67.40916375 63.23866199 67.1875 60.9375 C67.12965332 60.18734619 67.07180664 59.43719238 67.01220703 58.66430664 C66.81000007 56.27723915 66.81000007 56.27723915 66 53 C64.12209304 51.61536496 64.12209304 51.61536496 62 51 C60 48 60 48 60.1875 44.5 C61.29235382 39.74062969 61.29235382 39.74062969 64 38 C66.95908505 36.98768143 68.58920666 36.89241127 71.625 37.6875 C74.39783241 39.21985475 75.60857119 40.13984078 77 43 C76.82102973 46.34077836 76.56476961 48.98821691 74.92041016 51.93408203 C73.78497211 54.48264351 73.98391393 55.82633851 74.4609375 58.5546875 C74.67363281 59.84826172 74.67363281 59.84826172 74.890625 61.16796875 C75.05046875 62.06128906 75.2103125 62.95460937 75.375 63.875 C77.22877644 74.66774924 77.22877644 74.66774924 77 80 C81.0965011 80.8965528 81.0965011 80.8965528 85 80 C88.7867669 75.60451916 92.48334702 70.00592982 92.3125 64 C92.209375 63.01 92.10625 62.02 92 61 C93.01736771 58.23857335 93.36170741 57.31914629 96 56 C103.09859155 55.54929577 103.09859155 55.54929577 106 57 C107.63477001 60.26954002 107.76965945 63.49063534 107 67 C104.6875 69.5 104.6875 69.5 102 71 C101.01 71 100.02 71 99 71 C98.773125 71.66 98.54625 72.32 98.3125 73 C96.85109422 76.34035607 94.95435312 79.0853068 92.828125 82.03515625 C91.74076889 83.99523831 91.74076889 83.99523831 92.7265625 86.01953125 C93.14679688 86.67308594 93.56703125 87.32664062 94 88 C97.60490644 94.02571952 99.09201311 98.93005946 98 106 C95.8441053 113.19482019 91.00141228 117.62078189 84.6875 121.375 C78.01054268 122.92778077 71.84743585 122.77652208 65.8203125 119.3359375 C61.31528065 116.02966949 57.283388 111.51856841 56 106 C55.31816881 98.9709403 56.62156677 93.57646238 59 87 C58.14277344 86.0821875 57.28554687 85.164375 56.40234375 84.21875 C55.57633667 83.33135132 55.57633667 83.33135132 54.73364258 82.42602539 C53.53255388 81.13808346 52.32793389 79.85342598 51.11987305 78.57202148 C47.9535683 75.19437202 45.06440143 71.79152585 42.3125 68.0625 C40.47387745 65.98977573 39.45662466 65.09651196 36.7175293 64.51757812 C33.80654277 64.60562735 31.7044825 64.88488162 29 66 C25.95478756 69.42686987 24.29550966 73.25045061 22.5 77.4375 C21.97019531 78.49388672 21.44039062 79.55027344 20.89453125 80.63867188 C18.12863409 86.60169505 18.12863409 86.60169505 19.04052734 92.85351562 C20.61849133 95.4999078 20.61849133 95.4999078 22.46826172 97.80249023 C24.57744593 100.82843335 24.73394693 103.22602237 24.453125 106.83203125 C23.30690639 112.31609445 21.33220436 115.93967408 16.9375 119.4375 C11.85528532 122.14080568 7.65104075 122.52342401 2 122 C-3.67476113 120.03565961 -7.31400331 116.37199338 -10 111 C-10.68243922 103.62741891 -10.76668165 97.86668511 -6 92 C-0.43387895 87.65842558 4.08475139 87.49909668 11 88 C11.12165527 87.27385498 11.24331055 86.54770996 11.36865234 85.79956055 C11.99541943 83.02031147 12.88535828 80.77650234 14.1015625 78.20703125 C14.50890625 77.32982422 14.91625 76.45261719 15.3359375 75.54882812 C16.20124982 73.71200607 17.06846376 71.87607875 17.9375 70.04101562 C18.34226563 69.16767578 18.74703125 68.29433594 19.1640625 67.39453125 C19.53998535 66.59893799 19.9159082 65.80334473 20.30322266 64.98364258 C20.64812744 64.0017395 20.64812744 64.0017395 21 63 C20.67 62.34 20.34 61.68 20 61 C17.06344875 62.29229914 14.1560187 63.64058941 11.25 65 C10.0125 65.54333984 10.0125 65.54333984 8.75 66.09765625 C3.47372713 68.60814092 0.91894639 70.69753395 -1.15722656 76.23046875 C-2 78 -2 78 -5 80 C-8.09657269 80.39955777 -10.03815298 80.63837868 -13 80 C-16.78587196 76.98675497 -16.78587196 76.98675497 -18 74 C-18.3033837 70.81447114 -18.14795587 67.99839219 -17 65 C-15.26171875 63.2109375 -15.26171875 63.2109375 -13 62 C-10.546875 61.98828125 -10.546875 61.98828125 -7.75 62.3125 C-0.14847335 62.58465342 5.26279439 59.31843919 11.7265625 55.75 C15 54 15 54 17 54 C16.95875 52.96875 16.9175 51.9375 16.875 50.875 C17 47 17 47 18.3046875 44.13671875 C19.41043153 40.88345253 19.41043153 40.88345253 17.140625 38.02734375 C16.19638752 36.97966973 15.23127542 35.95056654 14.25 34.9375 C13.21684301 33.8076135 12.18697563 32.67471158 11.16015625 31.5390625 C10.63180176 30.9605957 10.10344727 30.38212891 9.55908203 29.78613281 C6.21143084 25.9509596 3.33729401 21.72485933 0.38671875 17.58203125 C-2.31604872 14.65808805 -4.21502675 14.01802729 -8 13 C-10 11 -10 11 -10.3125 7.0625 C-10.23081662 4.56208106 -10.12109418 3.22794199 -8.9375 1 C-5.82090489 -0.60856522 -3.43737531 -0.42213381 0 0 Z " fill="#083A89" transform="translate(18,3)"/>
<path d="M0 0 C1.9375 1.6875 1.9375 1.6875 3 4 C2.82102973 7.34077836 2.56476961 9.98821691 0.92041016 12.93408203 C-0.21502789 15.48264351 -0.01608607 16.82633851 0.4609375 19.5546875 C0.60273437 20.41707031 0.74453125 21.27945313 0.890625 22.16796875 C1.05046875 23.06128906 1.2103125 23.95460938 1.375 24.875 C3.22877644 35.66774924 3.22877644 35.66774924 3 41 C7.0965011 41.8965528 7.0965011 41.8965528 11 41 C14.7867669 36.60451916 18.48334702 31.00592982 18.3125 25 C18.209375 24.01 18.10625 23.02 18 22 C19.01736771 19.23857335 19.36170741 18.31914629 22 17 C29.09859155 16.54929577 29.09859155 16.54929577 32 18 C33.63477001 21.26954002 33.76965945 24.49063534 33 28 C30.6875 30.5 30.6875 30.5 28 32 C27.01 32 26.02 32 25 32 C24.773125 32.66 24.54625 33.32 24.3125 34 C22.85109422 37.34035607 20.95435312 40.0853068 18.828125 43.03515625 C17.74076889 44.99523831 17.74076889 44.99523831 18.7265625 47.01953125 C19.14679688 47.67308594 19.56703125 48.32664063 20 49 C23.60490644 55.02571952 25.09201311 59.93005946 24 67 C21.8441053 74.19482019 17.00141228 78.62078189 10.6875 82.375 C4.01054268 83.92778077 -2.15256415 83.77652208 -8.1796875 80.3359375 C-12.68471935 77.02966949 -16.716612 72.51856841 -18 67 C-18.68183119 59.9709403 -17.37843323 54.57646238 -15 48 C-15.85722656 47.0821875 -16.71445313 46.164375 -17.59765625 45.21875 C-18.14832764 44.62715088 -18.69899902 44.03555176 -19.26635742 43.42602539 C-20.46744612 42.13808346 -21.67206611 40.85342598 -22.88012695 39.57202148 C-26.0464317 36.19437202 -28.93559857 32.79152585 -31.6875 29.0625 C-33.72845 26.63500644 -34.44062391 26.05378616 -37.640625 25.74609375 C-40.17885487 25.97651965 -42.53443583 26.36500561 -45 27 C-45.44730469 28.13179687 -45.89460938 29.26359375 -46.35546875 30.4296875 C-46.96521559 31.91184137 -47.57594423 33.3935916 -48.1875 34.875 C-48.47947266 35.62136719 -48.77144531 36.36773437 -49.07226562 37.13671875 C-51.40543241 42.70621366 -51.40543241 42.70621366 -54.65625 44.3125 C-55.81640625 44.6528125 -55.81640625 44.6528125 -57 45 C-58.37189827 48.02982306 -58.37189827 48.02982306 -59 51 C-59.66 51 -60.32 51 -61 51 C-59.98670871 44.79588738 -57.22375739 39.42728538 -54.625 33.75 C-54.13 32.63625 -53.635 31.5225 -53.125 30.375 C-52.64289062 29.31796875 -52.16078125 28.2609375 -51.6640625 27.171875 C-51.22529785 26.2034668 -50.7865332 25.23505859 -50.33447266 24.23730469 C-49 22 -49 22 -46 21 C-46.94875 20.7525 -47.8975 20.505 -48.875 20.25 C-52 19 -52 19 -53.171875 17.19921875 C-54.57439463 13.47460295 -54.57327633 9.91505784 -54 6 C-51.93240751 2.52939832 -49.89055567 0.22274607 -46 -1 C-40.78457241 -1.48290996 -37.39370161 -0.89584879 -33 2 C-30.5206956 4.97516528 -30.02787339 6.68224334 -29.6875 10.5625 C-29.97037437 13.6741181 -30.34200001 15.40937502 -32 18 C-32.99 18 -33.98 18 -35 18 C-34.34 18.66 -33.68 19.32 -33 20 C-31.68 19.34 -30.36 18.68 -29 18 C-28.66548828 18.81210937 -28.66548828 18.81210937 -28.32421875 19.640625 C-26.57925337 22.74964886 -24.24715555 25.1788828 -21.8125 27.75 C-20.81950603 28.81304933 -19.82731953 29.87685349 -18.8359375 30.94140625 C-18.3522168 31.45977051 -17.86849609 31.97813477 -17.37011719 32.51220703 C-14.95357004 35.13630509 -12.64479677 37.85223266 -10.33984375 40.57421875 C-9.03645179 42.12574904 -9.03645179 42.12574904 -7 43 C-6.34 42.67 -5.68 42.34 -5 42 C-5.20341377 39.52156384 -5.42423154 37.04590601 -5.66015625 34.5703125 C-5.84180705 32.66193517 -6.02050179 30.75319647 -6.17919922 28.84277344 C-6.37240683 26.53903083 -6.59083625 24.23866199 -6.8125 21.9375 C-6.87034668 21.18734619 -6.92819336 20.43719238 -6.98779297 19.66430664 C-7.18999993 17.27723915 -7.18999993 17.27723915 -8 14 C-9.87790696 12.61536496 -9.87790696 12.61536496 -12 12 C-14 9 -14 9 -13.8125 5.5 C-12.72535211 0.81690141 -12.72535211 0.81690141 -10 -1 C-6.29478116 -2.66096017 -3.59584951 -1.60665617 0 0 Z " fill="#0A3988" transform="translate(92,42)"/>
<path d="M0 0 C4.00521387 2.88747977 7.46370991 6.48991981 9.6875 10.9375 C10.40860474 17.95940514 10.21141412 24.2569033 5.6875 29.9375 C1.54034914 34.02483618 -2.54862928 35.28595065 -8.3125 35.5625 C-14.07637072 35.28595065 -18.16534914 34.02483618 -22.3125 29.9375 C-26.27500025 24.96186048 -26.95387063 19.72424457 -26.6953125 13.484375 C-25.73558893 7.09927534 -21.15723323 3.62371007 -16.3125 -0.0625 C-11.53581234 -2.45084383 -4.92259935 -1.57894696 0 0 Z " fill="#FD7777" transform="translate(103.3125,87.0625)"/>
<path d="M0 0 C3.375 0.3125 3.375 0.3125 7 1 C7.66 1.99 8.32 2.98 9 4 C11.430948 4.63811043 13.69356922 5.08367903 16.16845703 5.44213867 C17.276157 5.61836006 17.276157 5.61836006 18.40623474 5.79814148 C20.85495074 6.18425227 23.306106 6.55136632 25.7578125 6.91796875 C27.4622986 7.18175287 29.16663254 7.44652199 30.87081909 7.7122345 C34.44914877 8.26735115 38.02867476 8.81366116 41.609375 9.35327148 C46.18430498 10.04296095 50.75646469 10.74925797 55.32791328 11.46161938 C58.85145912 12.00964315 62.37597204 12.55121269 65.90084457 13.09063148 C67.58584801 13.34879042 69.27063863 13.6083426 70.95520401 13.86934471 C73.32097696 14.23438615 75.68783484 14.59133292 78.05517578 14.94604492 C78.74327835 15.05354065 79.43138092 15.16103638 80.14033508 15.27178955 C84.83231306 15.96296105 89.27304643 16.24278536 94 16 C96.2085766 14.12491838 96.2085766 14.12491838 98 12 C100.75 11.25 100.75 11.25 103 11 C102.67 11.99 102.34 12.98 102 14 C103.093125 14.0825 104.18625 14.165 105.3125 14.25 C109 15 109 15 110.9375 16.625 C112.44290722 19.99002791 112.44819965 22.35037432 112 26 C110.5625 28.9375 110.5625 28.9375 108 31 C104.85673026 31.70939849 102.14106478 31.72752603 99 31 C96.04430564 28.33987508 94.58378312 25.94053603 94 22 C92.453125 22.06550049 92.453125 22.06550049 90.875 22.13232422 C84.4981975 22.12516986 78.27480286 20.91903515 72 19.8828125 C70.63738953 19.66277418 69.27467566 19.44337535 67.91186523 19.22457886 C64.33333078 18.6486881 60.75596919 18.06583591 57.17889404 17.48095703 C51.48506755 16.55077982 45.78976902 15.62973535 40.09399414 14.71157455 C38.13317388 14.39424984 36.17301821 14.07282688 34.21289062 13.75125122 C25.16386837 12.28455061 16.1011214 11.08378296 7 10 C9.2584356 13.41033129 11.49811891 16.7474654 14.09375 19.91015625 C14.64933594 20.59013672 15.20492188 21.27011719 15.77734375 21.97070312 C16.34582031 22.66099609 16.91429688 23.35128906 17.5 24.0625 C19.17267312 26.1049818 20.84501302 28.14772642 22.515625 30.19189453 C23.80272639 31.75970257 25.10329727 33.31643424 26.40625 34.87109375 C28 37 28 37 28 39 C24.84752913 37.63672336 23.06580583 36.20061552 20.94140625 33.515625 C20.39033203 32.82726563 19.83925781 32.13890625 19.27148438 31.4296875 C18.42553711 30.35074219 18.42553711 30.35074219 17.5625 29.25 C16.43909408 27.83830925 15.31540036 26.42684748 14.19140625 25.015625 C13.65531738 24.33564453 13.11922852 23.65566406 12.56689453 22.95507812 C11.11086663 21.13833281 9.61016723 19.3722862 8.08984375 17.609375 C6 15 6 15 6 13 C5.34 13 4.68 13 4 13 C4 12.01 4 11.02 4 10 C2.35 9.67 0.7 9.34 -1 9 C-1.80967438 6.08517222 -2.21845993 4.53886783 -1.0625 1.6875 C-0.711875 1.130625 -0.36125 0.57375 0 0 Z " fill="#0A3C8A" transform="translate(13,3)"/>
<path d="M0 0 C3.37250392 2.19945908 6.09575978 4.23288007 7.875 7.875 C8.69649105 12.64119808 8.27376184 16.67871447 6.75 21.25 C3.85833301 25.29833379 1.28827228 27.45276835 -3.71484375 28.328125 C-8.70769127 28.62947656 -12.22022256 28.39950077 -16.1875 25.1875 C-19.77073212 21.51854463 -20.93332806 18.60004744 -21.5 13.5 C-20.97820278 8.45596022 -19.48057862 4.85741765 -15.546875 1.546875 C-10.38509076 -1.75480681 -5.82128607 -2.09566299 0 0 Z " fill="#FBF269" transform="translate(31.125,94.125)"/>
<path d="M0 0 C3.12740787 2.0612461 4.33498308 3.35356975 5.75 6.8125 C6.11399464 10.96203888 6.29594764 14.37547069 3.75 17.8125 C1.8125 18.875 1.8125 18.875 -0.25 19.8125 C-0.70375 20.34875 -1.1575 20.885 -1.625 21.4375 C-4.05395238 23.4927674 -6.18373089 23.01691794 -9.25 22.8125 C-9.58 22.1525 -9.91 21.4925 -10.25 20.8125 C-11.219375 20.52375 -12.18875 20.235 -13.1875 19.9375 C-16.25 18.8125 -16.25 18.8125 -17.41796875 17.01953125 C-18.82340455 13.29149732 -18.82391018 9.73188656 -18.25 5.8125 C-13.93744775 -1.42642698 -7.86736248 -2.87461321 0 0 Z " fill="#56F1FD" transform="translate(56.25,42.1875)"/>
<path d="M0 0 C0.51046875 0.28617188 1.0209375 0.57234375 1.546875 0.8671875 C1.216875 1.5271875 0.886875 2.1871875 0.546875 2.8671875 C-0.443125 2.5371875 -1.433125 2.2071875 -2.453125 1.8671875 C-2.61530518 2.3943335 -2.77748535 2.92147949 -2.94458008 3.46459961 C-4.92303943 9.66458226 -7.4228213 15.52160704 -10.140625 21.4296875 C-10.55634766 22.34298828 -10.97207031 23.25628906 -11.40039062 24.19726562 C-12.41395402 26.42244502 -13.43157716 28.64566531 -14.453125 30.8671875 C-13.793125 30.8671875 -13.133125 30.8671875 -12.453125 30.8671875 C-12.205625 29.8978125 -11.958125 28.9284375 -11.703125 27.9296875 C-11.290625 26.9190625 -10.878125 25.9084375 -10.453125 24.8671875 C-8.375 24.17578125 -8.375 24.17578125 -6.453125 23.8671875 C-6.71609375 24.38667969 -6.9790625 24.90617187 -7.25 25.44140625 C-8.22340477 27.59965208 -8.99824424 29.54079734 -9.453125 31.8671875 C-7.86979167 34.70052083 -7.86979167 34.70052083 -5.453125 36.8671875 C-2.89741703 41.1415423 -2.81442471 45.00508158 -3.453125 49.8671875 C-5.2641541 55.72216226 -7.96699201 58.94903166 -13.453125 61.8671875 C-18.6202409 63.58955947 -23.55912258 63.52280372 -28.703125 61.7421875 C-32.53396849 59.13024876 -35.35474315 56.06395121 -37.453125 51.8671875 C-38.13556422 44.49460641 -38.21980665 38.73387261 -33.453125 32.8671875 C-27.88700395 28.52561308 -23.36837361 28.36628418 -16.453125 28.8671875 C-16.33146973 28.14104248 -16.20981445 27.41489746 -16.08447266 26.66674805 C-15.45770557 23.88749897 -14.56776672 21.64368984 -13.3515625 19.07421875 C-12.94421875 18.19701172 -12.536875 17.31980469 -12.1171875 16.41601562 C-11.25187518 14.57919357 -10.38466124 12.74326625 -9.515625 10.90820312 C-9.11085938 10.03486328 -8.70609375 9.16152344 -8.2890625 8.26171875 C-7.91313965 7.46612549 -7.5372168 6.67053223 -7.14990234 5.85083008 C-6.91996582 5.19622803 -6.6900293 4.54162598 -6.453125 3.8671875 C-6.783125 3.2071875 -7.113125 2.5471875 -7.453125 1.8671875 C-13.888125 4.8371875 -13.888125 4.8371875 -20.453125 7.8671875 C-19.453125 3.8671875 -19.453125 3.8671875 -17.046875 2.05859375 C-10.63581911 -1.31692431 -6.807042 -3.11385964 0 0 Z M-32.78125 36.4453125 C-35.41720209 40.56630803 -36.08072106 43.93607562 -35.453125 48.8671875 C-33.73008821 53.65340079 -31.13617174 57.63446219 -26.453125 59.8671875 C-21.01063118 60.88508981 -16.10104226 60.78383276 -11.390625 57.6796875 C-7.87117979 54.64858636 -6.77188102 52.17718485 -6.13671875 47.57421875 C-5.7962714 42.78622516 -6.05301288 39.66121987 -9.140625 35.8671875 C-12.80530017 32.22819931 -15.6906453 31.06301858 -20.828125 30.4921875 C-25.87216478 31.01398472 -29.47070735 32.51160888 -32.78125 36.4453125 Z " fill="#0C3D86" transform="translate(45.453125,62.1328125)"/>
<path d="M0 0 C0.66 0.33 1.32 0.66 2 1 C0.71034824 2.37562854 -0.62689293 3.70766393 -2 5 C-2.66 5 -3.32 5 -4 5 C-4 5.66 -4 6.32 -4 7 C-3.37351562 6.69964844 -2.74703125 6.39929688 -2.1015625 6.08984375 C-1.28429687 5.70957031 -0.46703125 5.32929687 0.375 4.9375 C1.18710937 4.55464844 1.99921875 4.17179687 2.8359375 3.77734375 C3.55007812 3.52082031 4.26421875 3.26429687 5 3 C5.66 3.33 6.32 3.66 7 4 C3 8 3 8 1.4375 9.375 C-0.21752205 11.10095958 -0.21752205 11.10095958 -1.5 14.0625 C-3 17 -3 17 -6 19 C-9.09657269 19.39955777 -11.03815298 19.63837868 -14 19 C-17.78587196 15.98675497 -17.78587196 15.98675497 -19 13 C-19.3033837 9.81447114 -19.14795587 6.99839219 -18 4 C-15.68330475 1.57580149 -14.41582652 1.03639861 -11.0546875 0.7421875 C-10.00539063 0.78601563 -8.95609375 0.82984375 -7.875 0.875 C-3.7824023 1.17490405 -3.7824023 1.17490405 0 0 Z " fill="#053788" transform="translate(19,64)"/>
<path d="M0 0 C4.45850936 0.79616239 5.90783917 1.93313458 8.5 5.625 C9.15622237 9.70816143 8.87781677 11.85293965 7.0625 15.5625 C3.8080567 18.18192997 1.72587726 18.35520174 -2.37109375 18.10546875 C-4.5 17.625 -4.5 17.625 -7.0625 15.5625 C-8.87781677 11.85293965 -9.15622237 9.70816143 -8.5 5.625 C-5.90783917 1.93313458 -4.45850936 0.79616239 0 0 Z " fill="#E088FC" transform="translate(116.5,16.375)"/>
<path d="M0 0 C2 1 2 1 3 3 C3.64336438 8.06649451 3.64336438 8.06649451 3 11 C0.6875 13.5 0.6875 13.5 -2 15 C-2.99 15 -3.98 15 -5 15 C-5.433125 16.175625 -5.433125 16.175625 -5.875 17.375 C-7 20 -7 20 -9 22 C-9.99 22.33 -10.98 22.66 -12 23 C-10.43358249 18.69235185 -8.31663844 14.93828536 -6 11 C-6.6496875 11.6496875 -6.6496875 11.6496875 -7.3125 12.3125 C-7.869375 12.869375 -8.42625 13.42625 -9 14 C-9.515625 14.556875 -10.03125 15.11375 -10.5625 15.6875 C-12 17 -12 17 -14 17 C-13.67 16.319375 -13.34 15.63875 -13 14.9375 C-11.80865587 11.95510127 -11.80865587 11.95510127 -12 8.4375 C-12 5.14791342 -11.83932701 3.65680568 -10 1 C-6.80732485 -0.59633757 -3.47306385 -0.36932376 0 0 Z " fill="#063988" transform="translate(122,59)"/>
<path d="M0 0 C8.92258914 0.77826698 17.73862415 2.10762263 26.5859375 3.46875 C28.17629435 3.71171837 29.76667773 3.9545132 31.35708618 4.19714355 C34.67043898 4.70319976 37.98351295 5.21103237 41.29638672 5.72021484 C45.53935241 6.37224756 49.7829207 7.0202577 54.02669334 7.66701508 C57.30227449 8.16658569 60.57756719 8.66802622 63.85277176 9.1700592 C65.41797555 9.4097952 66.98325974 9.64900686 68.54862595 9.88768005 C70.73111324 10.22078174 72.91320853 10.55634213 75.09521484 10.89257812 C76.33524261 11.08275513 77.57527039 11.27293213 78.85287476 11.46887207 C81.28442092 11.87923454 83.62513297 12.34772598 86 13 C86 13.66 86 14.32 86 15 C81.43275769 15.08153263 77.15169838 14.84255582 72.64428711 14.11376953 C71.42869614 13.9200174 70.21310516 13.72626526 68.9606781 13.52664185 C67.66267776 13.31417816 66.36467743 13.10171448 65.02734375 12.8828125 C63.65849358 12.66289077 62.28955977 12.44348912 60.92054749 12.22457886 C57.32325103 11.64809871 53.72700498 11.06531836 50.13098145 10.48095703 C45.09800059 9.66420751 40.06366318 8.85585828 35.0294342 8.04684448 C32.35654922 7.61730087 29.68414993 7.18505268 27.01194763 6.75125122 C19.59613831 5.55254946 12.17969578 4.44608457 4.73390198 3.4513855 C2 3 2 3 0 2 C0 1.34 0 0.68 0 0 Z " fill="#A0B1C5" transform="translate(20,10)"/>
<path d="M0 0 C0.51046875 0.28617188 1.0209375 0.57234375 1.546875 0.8671875 C1.216875 1.5271875 0.886875 2.1871875 0.546875 2.8671875 C-0.443125 2.5371875 -1.433125 2.2071875 -2.453125 1.8671875 C-2.783125 3.0015625 -3.113125 4.1359375 -3.453125 5.3046875 C-5.35251263 11.07661303 -8.01617372 16.47245763 -10.671875 21.92553711 C-11.01476563 22.63460205 -11.35765625 23.34366699 -11.7109375 24.07421875 C-12.0217627 24.7081958 -12.33258789 25.34217285 -12.65283203 25.99536133 C-13.64098343 28.16988547 -13.64098343 28.16988547 -14.453125 31.8671875 C-18.083125 31.8671875 -21.713125 31.8671875 -25.453125 31.8671875 C-25.123125 30.8771875 -24.793125 29.8871875 -24.453125 28.8671875 C-21.813125 28.8671875 -19.173125 28.8671875 -16.453125 28.8671875 C-16.33146973 28.14104248 -16.20981445 27.41489746 -16.08447266 26.66674805 C-15.45770557 23.88749897 -14.56776672 21.64368984 -13.3515625 19.07421875 C-12.94421875 18.19701172 -12.536875 17.31980469 -12.1171875 16.41601562 C-11.25187518 14.57919357 -10.38466124 12.74326625 -9.515625 10.90820312 C-9.11085938 10.03486328 -8.70609375 9.16152344 -8.2890625 8.26171875 C-7.91313965 7.46612549 -7.5372168 6.67053223 -7.14990234 5.85083008 C-6.91996582 5.19622803 -6.6900293 4.54162598 -6.453125 3.8671875 C-6.783125 3.2071875 -7.113125 2.5471875 -7.453125 1.8671875 C-13.888125 4.8371875 -13.888125 4.8371875 -20.453125 7.8671875 C-19.453125 3.8671875 -19.453125 3.8671875 -17.046875 2.05859375 C-10.63581911 -1.31692431 -6.807042 -3.11385964 0 0 Z " fill="#033689" transform="translate(45.453125,62.1328125)"/>
<path d="M0 0 C2.97 0.33 5.94 0.66 9 1 C8.67 1.99 8.34 2.98 8 4 C7.35538818 4.15412354 6.71077637 4.30824707 6.04663086 4.46704102 C5.03354858 4.73085571 5.03354858 4.73085571 4 5 C2.34180628 8.3497739 1.02455544 11.68614514 -0.26757812 15.18554688 C-2.46646625 20.73560088 -2.46646625 20.73560088 -5.640625 22.30859375 C-6.80851562 22.65083984 -6.80851562 22.65083984 -8 23 C-9.37189827 26.02982306 -9.37189827 26.02982306 -10 29 C-10.66 29 -11.32 29 -12 29 C-11.37143878 25.08165565 -10.16760882 21.85451551 -8.49609375 18.26171875 C-8.00302734 17.19501953 -7.50996094 16.12832031 -7.00195312 15.02929688 C-6.48568359 13.92650391 -5.96941406 12.82371094 -5.4375 11.6875 C-4.65729492 10.00430664 -4.65729492 10.00430664 -3.86132812 8.28710938 C-2.57900626 5.52247049 -1.29175153 2.76024234 0 0 Z " fill="#093A8D" transform="translate(43,64)"/>
<path d="M0 0 C0.28875 0.804375 0.5775 1.60875 0.875 2.4375 C1.73262568 5.1326468 1.73262568 5.1326468 4 6 C3.25 10.75 3.25 10.75 1 13 C-0.875 13.30078125 -0.875 13.30078125 -3 13.3125 C-3.70125 13.32925781 -4.4025 13.34601563 -5.125 13.36328125 C-5.74375 13.24339844 -6.3625 13.12351562 -7 13 C-9.46943529 9.29584707 -9.46913089 7.37855495 -9 3 C-6.29148704 -0.10977414 -4.00164289 -0.33347024 0 0 Z " fill="#708698" transform="translate(12,67)"/>
<path d="M0 0 C0.66 0 1.32 0 2 0 C0.55049545 3.7910119 -1.15172566 7.3874638 -3 11 C-2.34 10.67 -1.68 10.34 -1 10 C-1.33 10.9075 -1.66 11.815 -2 12.75 C-3.19605723 16.07045807 -3.19605723 16.07045807 -3 20 C-1.71488126 22.03131672 -0.38123963 24.03277992 1 26 C1.96070434 28.88211302 2.10581883 30.69850044 2.0625 33.6875 C2.05347656 34.49574219 2.04445313 35.30398437 2.03515625 36.13671875 C2.02355469 36.75160156 2.01195313 37.36648437 2 38 C0.515 38.495 0.515 38.495 -1 39 C-1.02578125 38.27554688 -1.0515625 37.55109375 -1.078125 36.8046875 C-1.50725744 29.48993003 -2.91783758 25.50728827 -7.8125 19.9375 C-9 18 -9 18 -8.8203125 15.8046875 C-7.77807092 12.24121391 -6.02462479 9.30259015 -4.0625 6.1875 C-3.70220703 5.59001953 -3.34191406 4.99253906 -2.97070312 4.37695312 C-2.04093616 2.87870985 -1.02648071 1.43371436 0 0 Z " fill="#0E3986" transform="translate(114,70)"/>
<path d="M0 0 C0.33 0 0.66 0 1 0 C1.01417969 0.79664062 1.02835938 1.59328125 1.04296875 2.4140625 C1.19504669 9.49686466 1.19504669 9.49686466 4.3125 15.625 C9.14359568 19.89434037 12.69444722 20.36944472 19 21 C16.46277946 23.53722054 15.34088191 23.38319839 11.8125 23.5 C6.6225488 23.41145753 3.91604098 22.33837449 0.3046875 18.640625 C-3.12200587 14.33160939 -3.4840036 10.42084035 -3 5 C-1.5625 2.0625 -1.5625 2.0625 0 0 Z " fill="#F5C745" transform="translate(13,99)"/>
<path d="M0 0 C0.33 0 0.66 0 1 0 C1.20625 1.134375 1.4125 2.26875 1.625 3.4375 C3.23690548 9.78367334 6.67015212 15.85924819 12.25 19.5 C16.56524833 21.63338119 21.25743003 21.80915211 26 22 C23.37167657 24.62832343 22.04065032 24.35861892 18.375 24.4375 C12.37131462 24.31512272 8.3227902 23.26044226 4 19 C-0.60339001 13.21960686 -0.4707137 7.11300699 0 0 Z " fill="#F54958" transform="translate(77,98)"/>
<path d="M0 0 C5.03330144 0.5480706 8.95124085 1.32523105 12.5 5.125 C15.45232662 9.06143549 16 12.10722517 16 17 C14.97296723 21.51894418 12.71560722 23.35996329 9 26 C8.67 24.68 8.34 23.36 8 22 C8.99 21.67 9.98 21.34 11 21 C12.46345254 16.60964237 12.37640721 12.69383244 11.375 8.1875 C9.43089957 5.09461295 7.47491682 4.88576311 4 4 C2.32836805 3.34588315 0.65984798 2.68346682 -1 2 C-0.67 1.34 -0.34 0.68 0 0 Z " fill="#053D8B" transform="translate(49,38)"/>
<path d="M0 0 C0.33 0 0.66 0 1 0 C1.0825 1.051875 1.165 2.10375 1.25 3.1875 C2.0595509 7.30271705 3.11709086 9.02972998 6 12 C8.29629994 13.14814997 10.07698086 13.30769809 12.625 13.5625 C13.44226562 13.64628906 14.25953125 13.73007812 15.1015625 13.81640625 C15.72804688 13.87699219 16.35453125 13.93757813 17 14 C16 17 16 17 14 18 C12.00039988 18.039992 9.99952758 18.04346799 8 18 C7.67 17.34 7.34 16.68 7 16 C6.030625 15.71125 5.06125 15.4225 4.0625 15.125 C1 14 1 14 -0.1796875 12.22265625 C-1.08646699 9.76571563 -1.2349633 7.92298125 -1.1875 5.3125 C-1.18105469 4.52488281 -1.17460938 3.73726562 -1.16796875 2.92578125 C-1 1 -1 1 0 0 Z " fill="#07BDF5" transform="translate(39,47)"/>
<path d="M0 0 C2.5625 0.3125 2.5625 0.3125 4.4375 1.375 C6.21032183 4.42819315 5.25485306 6.97661708 4.5625 10.3125 C1.1875 10.5 1.1875 10.5 -2.4375 10.3125 C-4.58665785 7.08876323 -4.82036803 6.04546326 -4.4375 2.3125 C-2.4375 0.3125 -2.4375 0.3125 0 0 Z " fill="#758B9C" transform="translate(86.4375,42.6875)"/>
<path d="M0 0 C6.70221369 5.36177095 12.30641962 11.61395714 18 18 C18.67289063 18.74636719 19.34578125 19.49273437 20.0390625 20.26171875 C24 24.73889218 24 24.73889218 24 27 C21.10368126 25.69983484 19.14805694 24.36489577 17.01171875 22.0234375 C16.47313232 21.43860596 15.9345459 20.85377441 15.37963867 20.2512207 C14.82123291 19.63206787 14.26282715 19.01291504 13.6875 18.375 C13.11298096 17.74489014 12.53846191 17.11478027 11.9465332 16.46557617 C10.80920856 15.21543509 9.67460862 13.96280886 8.54296875 12.70751953 C7.23733865 11.26264977 5.91712064 9.83098251 4.59375 8.40234375 C3.9646875 7.71269531 3.335625 7.02304688 2.6875 6.3125 C2.15511719 5.73113281 1.62273438 5.14976563 1.07421875 4.55078125 C0 3 0 3 0 0 Z " fill="#A8B6C7" transform="translate(58,62)"/>
<path d="M0 0 C4.04516873 1.34838958 5.65031409 4.08917421 8.125 7.375 C9.10172245 8.64931373 10.07960442 9.92273948 11.05859375 11.1953125 C11.79311768 12.1529248 11.79311768 12.1529248 12.54248047 13.12988281 C15.40162193 16.79839597 18.41698878 20.33780108 21.41796875 23.890625 C23 26 23 26 23 28 C19.88250219 26.64591832 18.08932815 25.23583507 15.9765625 22.5859375 C15.43 21.90660156 14.8834375 21.22726563 14.3203125 20.52734375 C13.76085938 19.81707031 13.20140625 19.10679688 12.625 18.375 C12.07328125 17.68792969 11.5215625 17.00085938 10.953125 16.29296875 C9.28615174 14.20729564 7.63947545 12.10734233 6 10 C5.42217773 9.26168945 4.84435547 8.52337891 4.24902344 7.76269531 C3.70020508 7.04952148 3.15138672 6.33634766 2.5859375 5.6015625 C2.08884277 4.95783691 1.59174805 4.31411133 1.07958984 3.65087891 C0 2 0 2 0 0 Z " fill="#C0CBD8" transform="translate(18,14)"/>
<path d="M0 0 C2.4375 0.75 2.4375 0.75 4.4375 2.75 C4.3125 5.25 4.3125 5.25 3.4375 7.75 C1.6875 9.25 1.6875 9.25 -0.5625 9.75 C-3.3125 8.6875 -3.3125 8.6875 -5.5625 6.75 C-6.0625 4.1875 -6.0625 4.1875 -5.5625 1.75 C-2.5625 -0.25 -2.5625 -0.25 0 0 Z " fill="#6E8496" transform="translate(118.5625,61.25)"/>
<path d="M0 0 C0.66 0 1.32 0 2 0 C1.37143878 3.91834435 0.16760882 7.14548449 -1.50390625 10.73828125 C-1.99697266 11.80498047 -2.49003906 12.87167969 -2.99804688 13.97070312 C-3.51431641 15.07349609 -4.03058594 16.17628906 -4.5625 17.3125 C-5.08263672 18.43462891 -5.60277344 19.55675781 -6.13867188 20.71289062 C-7.42099374 23.47752951 -8.70824847 26.23975766 -10 29 C-10.66 29 -11.32 29 -12 29 C-11.37143878 25.08165565 -10.16760882 21.85451551 -8.49609375 18.26171875 C-8.00302734 17.19501953 -7.50996094 16.12832031 -7.00195312 15.02929688 C-6.48568359 13.92650391 -5.96941406 12.82371094 -5.4375 11.6875 C-4.65729492 10.00430664 -4.65729492 10.00430664 -3.86132812 8.28710938 C-2.57900626 5.52247049 -1.29175153 2.76024234 0 0 Z " fill="#AEBCCC" transform="translate(43,64)"/>
<path d="M0 0 C0.99 0.495 0.99 0.495 2 1 C2.59423828 3.23730469 2.59423828 3.23730469 3.0703125 6.171875 C3.24433594 7.22890625 3.41835937 8.2859375 3.59765625 9.375 C3.85869141 11.045625 3.85869141 11.045625 4.125 12.75 C4.30675781 13.84828125 4.48851563 14.9465625 4.67578125 16.078125 C5.43317728 20.77056355 6.11176625 25.23637047 6 30 C5.34 30 4.68 30 4 30 C1.65623086 20.12268721 -0.39963411 10.19066983 0 0 Z " fill="#A5B5C7" transform="translate(87,54)"/>
<path d="M0 0 C-1 3 -1 3 -2.71826172 4.16674805 C-3.81291748 4.70875854 -3.81291748 4.70875854 -4.9296875 5.26171875 C-5.72503906 5.65810547 -6.52039063 6.05449219 -7.33984375 6.46289062 C-8.59474609 7.06907227 -8.59474609 7.06907227 -9.875 7.6875 C-10.70386719 8.10322266 -11.53273438 8.51894531 -12.38671875 8.94726562 C-18.5924415 12 -18.5924415 12 -22 12 C-22 11.34 -22 10.68 -22 10 C-18.71158124 8.32686677 -15.41875318 6.66260393 -12.125 5 C-11.18785156 4.52304687 -10.25070313 4.04609375 -9.28515625 3.5546875 C-8.38925781 3.10351562 -7.49335938 2.65234375 -6.5703125 2.1875 C-5.74289551 1.76855469 -4.91547852 1.34960938 -4.06298828 0.91796875 C-2 0 -2 0 0 0 Z " fill="#96A7BB" transform="translate(37,59)"/>
<path d="M0 0 C8.50825713 0.43108503 16.69433011 0.98709647 25 3 C25 3.33 25 3.66 25 4 C6.7611276 4.5074184 6.7611276 4.5074184 0 0 Z " fill="#ABBACB" transform="translate(55,16)"/>
<path d="M0 0 C0.2475 0.5775 0.495 1.155 0.75 1.75 C2.60042139 5.0807585 4.32398443 7.42848511 8.0390625 8.6953125 C10.01193699 9.19027395 12.00548334 9.60109667 14 10 C13.67 10.66 13.34 11.32 13 12 C4.96043727 12.77303488 4.96043727 12.77303488 1.4375 9.9375 C-0.29233945 6.4026107 -0.30495508 3.88817732 0 0 Z " fill="#8C4BE0" transform="translate(108,22)"/>
<path d="M0 0 C1.98 0 3.96 0 6 0 C6 4 6 4 4 7 C1.525 6.01 1.525 6.01 -1 5 C-0.67 3.35 -0.34 1.7 0 0 Z " fill="#74899B" transform="translate(12,6)"/>
<path d="M0 0 C0.66 0 1.32 0 2 0 C0.5143761 4.00375642 -1.36863385 7.61421847 -3.5 11.3125 C-4.1084375 12.38113281 -4.716875 13.44976562 -5.34375 14.55078125 C-6.16359375 15.76314453 -6.16359375 15.76314453 -7 17 C-7.66 17 -8.32 17 -9 17 C-7.69166571 12.59091345 -5.97608606 8.99650745 -3.5 5.125 C-2.8915625 4.15820312 -2.283125 3.19140625 -1.65625 2.1953125 C-0.83640625 1.10863281 -0.83640625 1.10863281 0 0 Z " fill="#B9C6D5" transform="translate(114,70)"/>
<path d="M0 0 C0.66 0.99 1.32 1.98 2 3 C-3.61 2.34 -9.22 1.68 -15 1 C-15 0.67 -15 0.34 -15 0 C-9.66980725 -0.99941114 -5.3420397 -1.08651655 0 0 Z " fill="#92A6BF" transform="translate(88,20)"/>
<path d="M0 0 C10.55808656 0.96355353 10.55808656 0.96355353 15 2 C15 2.33 15 2.66 15 3 C12.87506859 3.02693575 10.75004088 3.04636628 8.625 3.0625 C7.44164062 3.07410156 6.25828125 3.08570313 5.0390625 3.09765625 C2 3 2 3 0 2 C0 1.34 0 0.68 0 0 Z " fill="#AEBCCC" transform="translate(20,10)"/>
<path d="M0 0 C1.1171875 1.734375 1.1171875 1.734375 2 4 C1.3203125 6.140625 1.3203125 6.140625 0.125 8.25 C-0.26429687 8.95640625 -0.65359375 9.6628125 -1.0546875 10.390625 C-1.36664063 10.92171875 -1.67859375 11.4528125 -2 12 C-2.66 12 -3.32 12 -4 12 C-3.33501617 7.61110675 -1.81242323 4.0188515 0 0 Z " fill="#9FB0C4" transform="translate(35,81)"/>
<path d="M0 0 C0.66 0 1.32 0 2 0 C1.50168276 3.68754757 0.89932357 5.60490662 -2 8 C-2.33 7.34 -2.66 6.68 -3 6 C-2.06553465 3.96855359 -1.06775224 1.96466413 0 0 Z " fill="#A4B4C7" transform="translate(43,64)"/>
<path d="M0 0 C0.66 0 1.32 0 2 0 C2.33 2.31 2.66 4.62 3 7 C2.34 7 1.68 7 1 7 C0.67 4.69 0.34 2.38 0 0 Z " fill="#9AACC3" transform="translate(90,77)"/>
</svg>
