<?xml version="1.0" encoding="UTF-8"?>
<svg version="1.1" xmlns="http://www.w3.org/2000/svg" width="128" height="128">
<path d="M0 0 C0.69867188 -0.00708984 1.39734375 -0.01417969 2.1171875 -0.02148438 C6.56423333 0.03305487 9.47223436 0.7048179 13 3.4375 C14.15352646 5.74455292 14.12900617 7.08351799 14.1328125 9.6484375 C14.13410156 10.48117188 14.13539062 11.31390625 14.13671875 12.171875 C14.13285156 13.04328125 14.12898438 13.9146875 14.125 14.8125 C14.12886719 15.67617188 14.13273437 16.53984375 14.13671875 17.4296875 C14.13542969 18.265 14.13414063 19.1003125 14.1328125 19.9609375 C14.13168457 20.72325684 14.13055664 21.48557617 14.12939453 22.27099609 C14 24.4375 14 24.4375 13.42919922 26.65478516 C13.21674561 27.537229 13.21674561 27.537229 13 28.4375 C13.33 28.7675 13.66 29.0975 14 29.4375 C14.09376053 31.24805025 14.1174411 33.06227201 14.11352539 34.87524414 C14.11341209 36.61693626 14.11341209 36.61693626 14.11329651 38.39381409 C14.10813522 39.657332 14.10297394 40.92084991 14.09765625 42.22265625 C14.0962413 43.50861191 14.09482635 44.79456757 14.09336853 46.11949158 C14.08954418 49.54393443 14.07971462 52.96833509 14.06866455 56.39276123 C14.05844864 59.88488189 14.05387053 63.37700934 14.04882812 66.86914062 C14.03809227 73.72527778 14.02101684 80.58138687 14 87.4375 C15.2065625 87.6540625 15.2065625 87.6540625 16.4375 87.875 C19 88.4375 19 88.4375 20 89.4375 C20.1875 92.875 20.1875 92.875 20 96.4375 C18 98.4375 18 98.4375 14.92724609 98.66455078 C13.63898926 98.65407715 12.35073242 98.64360352 11.0234375 98.6328125 C10.33819 98.6299826 9.6529425 98.62715271 8.94692993 98.62423706 C6.75610973 98.61303281 4.56569684 98.58792859 2.375 98.5625 C0.8906309 98.55247048 -0.5937446 98.54334458 -2.078125 98.53515625 C-5.71888261 98.51309294 -9.35940156 98.47856176 -13 98.4375 C-13 97.7775 -13 97.1175 -13 96.4375 C-13.99 97.0975 -14.98 97.7575 -16 98.4375 C-18.88898932 98.63242518 -21.6812789 98.7104222 -24.57055664 98.69628906 C-25.88312691 98.70154602 -25.88312691 98.70154602 -27.22221375 98.70690918 C-30.11827497 98.71572095 -33.01409249 98.70987979 -35.91015625 98.703125 C-37.91890001 98.70447169 -39.92764346 98.70641225 -41.93638611 98.70892334 C-46.1471568 98.71187375 -50.35784268 98.70757914 -54.56860352 98.69824219 C-59.97498597 98.6868404 -65.38117001 98.69341228 -70.7875452 98.70538712 C-74.93527227 98.71260169 -79.08295201 98.71031977 -83.23068047 98.70513153 C-85.22465475 98.7037943 -87.21863329 98.70544531 -89.21260262 98.71009064 C-91.99479748 98.71515005 -94.77666734 98.70745426 -97.55883789 98.69628906 C-98.38850067 98.70033752 -99.21816345 98.70438599 -100.07296753 98.70855713 C-105.77147043 98.66602957 -105.77147043 98.66602957 -108 96.4375 C-108.25 92.9375 -108.25 92.9375 -108 89.4375 C-107.01 88.4475 -107.01 88.4475 -106 87.4375 C-104.68 87.4375 -103.36 87.4375 -102 87.4375 C-102.00888245 86.88261902 -102.01776489 86.32773804 -102.0269165 85.75604248 C-102.11540593 79.98118389 -102.17574053 74.20651784 -102.21972656 68.43115234 C-102.23984276 66.27579933 -102.26713925 64.12050089 -102.30175781 61.96533203 C-102.35027486 58.86737605 -102.37296873 55.77014154 -102.390625 52.671875 C-102.41127014 51.70820007 -102.43191528 50.74452515 -102.45318604 49.75164795 C-102.45541196 43.11616807 -102.45541196 43.11616807 -100.25097656 39.83105469 C-97.78501535 38.30440538 -96.4709892 37.92356786 -93.59375 37.90625 C-92.76746094 37.90109375 -91.94117187 37.8959375 -91.08984375 37.890625 C-89.80787109 37.91382812 -89.80787109 37.91382812 -88.5 37.9375 C-87.21802734 37.91429688 -87.21802734 37.91429688 -85.91015625 37.890625 C-82.14279067 37.9141343 -79.688081 38.03128351 -76.40625 39.96875 C-75 42.4375 -75 42.4375 -75 50.4375 C-69.39 50.4375 -63.78 50.4375 -58 50.4375 C-58.05220703 48.25060547 -58.05220703 48.25060547 -58.10546875 46.01953125 C-58.13361264 44.09636571 -58.16091215 42.17318768 -58.1875 40.25 C-58.21263672 39.29029297 -58.23777344 38.33058594 -58.26367188 37.34179688 C-58.3568739 28.36333557 -58.3568739 28.36333557 -55 24.4375 C-51.62148271 22.74824135 -47.83713354 23.21073714 -44.125 23.1875 C-42.90103516 23.1565625 -42.90103516 23.1565625 -41.65234375 23.125 C-38.13554171 23.10205186 -35.65935319 23.10986474 -32.4765625 24.69140625 C-29.92662489 27.70680866 -30.25315137 30.57694159 -30 34.4375 C-24.72 34.4375 -19.44 34.4375 -14 34.4375 C-13.98582031 32.31828125 -13.97164063 30.1990625 -13.95703125 28.015625 C-13.92639225 25.95687059 -13.88730916 23.8984371 -13.84741211 21.83984375 C-13.82425541 20.41222533 -13.80984176 18.98443664 -13.80444336 17.55664062 C-13.79513508 15.50022587 -13.75411728 13.44647973 -13.70703125 11.390625 C-13.6913208 10.15473633 -13.67561035 8.91884766 -13.65942383 7.64550781 C-13 4.4375 -13 4.4375 -10.6940918 2.03393555 C-7.1329232 -0.07630292 -4.01846882 -0.11491931 0 0 Z " fill="#262120" transform="translate(108,29.5625)"/>
<path d="M0 0 C2.64590014 -0.02684679 5.29153096 -0.04676357 7.9375 -0.0625 C8.69224609 -0.07087891 9.44699219 -0.07925781 10.22460938 -0.08789062 C12.14994313 -0.09652441 14.07535581 -0.05224333 16 0 C17.51421001 1.51421001 17.21309856 2.92472768 17.31640625 5.03515625 C17.35830078 5.84404297 17.40019531 6.65292969 17.44335938 7.48632812 C17.48267578 8.33646484 17.52199219 9.18660156 17.5625 10.0625 C17.60568359 10.91650391 17.64886719 11.77050781 17.69335938 12.65039062 C17.79976702 14.76672037 17.90041731 16.88333813 18 19 C18.66 19.33 19.32 19.66 20 20 C20 20.99 20 21.98 20 23 C19.34 23.33 18.68 23.66 18 24 C17.67 43.14 17.34 62.28 17 82 C11.06 82 5.12 82 -1 82 C-1.02256262 71.60383761 -1.04092184 61.20769139 -1.05181217 50.81151009 C-1.0570381 45.98451963 -1.06413052 41.15754675 -1.07543945 36.33056641 C-1.0862786 31.67514752 -1.09227903 27.01974556 -1.09487724 22.36431503 C-1.09672963 20.58525196 -1.1003467 18.80618984 -1.10573006 17.02713394 C-1.11295409 14.54166893 -1.11399036 12.05627454 -1.11352539 9.57080078 C-1.11712067 8.82993225 -1.12071594 8.08906372 -1.12442017 7.32574463 C-1.11405216 2.22810432 -1.11405216 2.22810432 0 0 Z " fill="#F34220" transform="translate(100,35)"/>
<path d="M0 0 C1.9375 1.0625 1.9375 1.0625 3 3 C3.6414791 8.98713826 3.6414791 8.98713826 1.8125 11.875 C0 13 0 13 -2.39135742 13.28100586 C-7.51285148 14.69259219 -9.64056044 20.2725373 -12.3125 24.5625 C-13.28026367 26.02913086 -13.28026367 26.02913086 -14.26757812 27.52539062 C-17.97658087 33.38522247 -19.71423624 37.07190844 -19 44 C-20.0625 46 -20.0625 46 -22 47 C-26.36706908 47.38991688 -28.30513897 47.46324069 -32 45 C-32.44279297 43.79150391 -32.44279297 43.79150391 -32.89453125 42.55859375 C-34.63498276 38.53034026 -37.544484 37.57415135 -41.41015625 35.84375 C-44.12063177 34.8049954 -44.12063177 34.8049954 -47.625 35.0625 C-52.72090066 37.98792446 -55.58771897 42.30723414 -59 47 C-59.73992188 47.87011719 -60.47984375 48.74023438 -61.2421875 49.63671875 C-63.30869552 51.91049471 -63.30869552 51.91049471 -62.9375 55 C-63 58 -63 58 -65.1875 60.875 C-68 63 -68 63 -70.5625 63.5625 C-73.79441567 62.81667331 -75.02389201 61.63481065 -77 59 C-77 57.68 -77 56.36 -77 55 C-78.11375 54.566875 -78.11375 54.566875 -79.25 54.125 C-82 53 -82 53 -83.890625 51.921875 C-86.3422217 50.85043644 -87.85387978 50.91657272 -90.5 51.125 C-93.75044246 51.18925916 -94.73306452 51.16927616 -97.5625 49.375 C-99.43910956 46.27451464 -99.59452734 44.56716403 -99 41 C-97.4375 38.5625 -97.4375 38.5625 -95 37 C-91.4375 36.9375 -91.4375 36.9375 -88 38 C-86.25 40.375 -86.25 40.375 -85 43 C-82.68441267 45.73660321 -80.27991175 47.53450752 -77 49 C-73.65072647 49.24657228 -70.35161384 49.17571568 -67 49 C-66.77570313 48.45988281 -66.55140625 47.91976562 -66.3203125 47.36328125 C-64.2729258 43.6985802 -61.32815047 40.72671861 -58.45703125 37.68554688 C-54.9414594 33.70362366 -54.72768618 31.18015161 -55 26 C-52.875 23.5 -52.875 23.5 -50 22 C-46.875 22 -46.875 22 -44 23 C-41.77426247 25.3024871 -41.01891496 26.94325512 -40 30 C-34.92237477 33.78605971 -30.16724771 34.44051769 -24 34 C-23.59334106 32.89398438 -23.59334106 32.89398438 -23.1784668 31.765625 C-22.05485149 29.12872544 -20.80808042 27.07235657 -19.14453125 24.75 C-18.60505859 23.9765625 -18.06558594 23.203125 -17.50976562 22.40625 C-16.37434843 20.79654462 -15.23103877 19.19237854 -14.08007812 17.59375 C-13.54447266 16.8203125 -13.00886719 16.046875 -12.45703125 15.25 C-11.96178955 14.55390625 -11.46654785 13.8578125 -10.95629883 13.140625 C-9.71997313 10.37317448 -10.27703589 8.88600011 -11 6 C-10.1875 3.25 -10.1875 3.25 -9 1 C-5.95016004 -0.52491998 -3.3576631 -0.23562548 0 0 Z " fill="#222323" transform="translate(112,0)"/>
<path d="M0 0 C1.8871875 0.00773437 1.8871875 0.00773437 3.8125 0.015625 C5.070625 0.01046875 6.32875 0.0053125 7.625 0 C10.8125 0.265625 10.8125 0.265625 12.8125 2.265625 C13.05300903 4.70803833 13.05300903 4.70803833 13.03955078 7.81689453 C13.03939972 8.97794708 13.03924866 10.13899963 13.03909302 11.3352356 C13.02877045 12.59359222 13.01844788 13.85194885 13.0078125 15.1484375 C13.0049826 16.43297821 13.00215271 17.71751892 12.99923706 19.04098511 C12.99159809 22.45725267 12.97194752 25.87335037 12.9498291 29.28955078 C12.92937624 32.77504173 12.92023655 36.2605601 12.91015625 39.74609375 C12.88870172 46.58601435 12.85351753 53.42579404 12.8125 60.265625 C6.8725 60.265625 0.9325 60.265625 -5.1875 60.265625 C-5.2326426 52.73792288 -5.26935363 45.21027095 -5.29112434 37.68246651 C-5.30157198 34.18718573 -5.31574883 30.69200217 -5.33837891 27.19677734 C-5.36421953 23.18065444 -5.37396466 19.16463403 -5.3828125 15.1484375 C-5.39313507 13.89008087 -5.40345764 12.63172424 -5.41409302 11.3352356 C-5.41424408 10.17418304 -5.41439514 9.01313049 -5.41455078 7.81689453 C-5.418992 6.79097198 -5.42343323 5.76504944 -5.42800903 4.70803833 C-5.04154493 0.78342453 -3.81820089 0.31818341 0 0 Z " fill="#03BF50" transform="translate(60.1875,56.734375)"/>
<path d="M0 0 C1.12535156 0.00580078 1.12535156 0.00580078 2.2734375 0.01171875 C3.02367188 0.00785156 3.77390625 0.00398438 4.546875 0 C10.14682697 0.01010822 10.14682697 0.01010822 11.2734375 1.13671875 C11.36647768 2.61026223 11.39090015 4.08822466 11.38696289 5.56469727 C11.38688736 6.50559708 11.38681183 7.44649689 11.38673401 8.41590881 C11.38157272 9.43881516 11.37641144 10.4617215 11.37109375 11.515625 C11.3696788 12.55742416 11.36826385 13.59922333 11.36680603 14.67259216 C11.3611883 18.01482969 11.3486328 21.35700132 11.3359375 24.69921875 C11.33092478 26.95898341 11.32636148 29.21874912 11.32226562 31.47851562 C11.31121311 37.03127557 11.2939366 42.58398597 11.2734375 48.13671875 C5.3334375 48.13671875 -0.6065625 48.13671875 -6.7265625 48.13671875 C-6.75120546 41.46150993 -6.76939517 34.78632735 -6.78149414 28.11108398 C-6.78653575 25.83829284 -6.79336887 23.56550495 -6.80200195 21.29272461 C-6.81407511 18.03368324 -6.81979237 14.77468458 -6.82421875 11.515625 C-6.82938004 10.49271866 -6.83454132 9.46981232 -6.83985901 8.41590881 C-6.83993454 7.475009 -6.84001007 6.53410919 -6.84008789 5.56469727 C-6.8423085 4.73196793 -6.84452911 3.89923859 -6.84681702 3.04127502 C-6.58363723 -1.12689043 -3.46139667 0.00624801 0 0 Z " fill="#FD9800" transform="translate(83.7265625,68.86328125)"/>
<path d="M0 0 C1.8871875 -0.02126953 1.8871875 -0.02126953 3.8125 -0.04296875 C7 0.1875 7 0.1875 9 2.1875 C9.24050903 4.06045532 9.24050903 4.06045532 9.22705078 6.36181641 C9.22689972 7.22255768 9.22674866 8.08329895 9.22659302 8.97012329 C9.21627045 9.90037323 9.20594788 10.83062317 9.1953125 11.7890625 C9.1924826 12.74066254 9.18965271 13.69226257 9.18673706 14.67269897 C9.17551989 17.71942592 9.15041263 20.76586154 9.125 23.8125 C9.11497218 25.87499576 9.10584599 27.93749612 9.09765625 30 C9.07557554 35.06261267 9.0410353 40.1250069 9 45.1875 C3.06 45.1875 -2.88 45.1875 -9 45.1875 C-9 30.6675 -9 16.1475 -9 1.1875 C-6.02958551 -0.29770725 -3.30235553 0.0169178 0 0 Z " fill="#47515E" transform="translate(20,71.8125)"/>
<path d="M0 0 C1.8871875 -0.02126953 1.8871875 -0.02126953 3.8125 -0.04296875 C7 0.1875 7 0.1875 9 2.1875 C9.22705078 5.26025391 9.22705078 5.26025391 9.1953125 9.1640625 C9.1924826 9.84931 9.18965271 10.5345575 9.18673706 11.24057007 C9.17553281 13.43139027 9.15042859 15.62180316 9.125 17.8125 C9.11497048 19.2968691 9.10584458 20.7812446 9.09765625 22.265625 C9.07729323 25.90653356 9.03814721 29.54656032 9 33.1875 C3.06 33.1875 -2.88 33.1875 -9 33.1875 C-9 22.6275 -9 12.0675 -9 1.1875 C-6.02958551 -0.29770725 -3.30235553 0.0169178 0 0 Z " fill="#1BBEF6" transform="translate(42,83.8125)"/>
<path d="M0 0 C1.32 0 2.64 0 4 0 C4 27.06 4 54.12 4 82 C2.35 82 0.7 82 -1 82 C-1.02313662 71.60384149 -1.04092185 61.20768907 -1.05181217 50.81151009 C-1.0570381 45.98451963 -1.06413052 41.15754675 -1.07543945 36.33056641 C-1.0862786 31.67514752 -1.09227903 27.01974556 -1.09487724 22.36431503 C-1.09672963 20.58525196 -1.1003467 18.80618984 -1.10573006 17.02713394 C-1.11295409 14.54166893 -1.11399036 12.05627454 -1.11352539 9.57080078 C-1.11712067 8.82993225 -1.12071594 8.08906372 -1.12442017 7.32574463 C-1.11405216 2.22810432 -1.11405216 2.22810432 0 0 Z " fill="#BF281C" transform="translate(100,35)"/>
<path d="M0 0 C38.94 0 77.88 0 118 0 C118 0.99 118 1.98 118 3 C109.09 3 100.18 3 91 3 C91 3.66 91 4.32 91 5 C89.68 5 88.36 5 87 5 C87 4.34 87 3.68 87 3 C58.29 3 29.58 3 0 3 C0 2.01 0 1.02 0 0 Z " fill="#D1C7C0" transform="translate(5,121)"/>
<path d="M0 0 C1.27617188 0.02320313 2.55234375 0.04640625 3.8671875 0.0703125 C5.78917969 0.09738281 5.78917969 0.09738281 7.75 0.125 C9.23113281 0.15980469 9.23113281 0.15980469 10.7421875 0.1953125 C10.7421875 0.5253125 10.7421875 0.8553125 10.7421875 1.1953125 C6.7821875 1.1953125 2.8221875 1.1953125 -1.2578125 1.1953125 C-1.2578125 20.6653125 -1.2578125 40.1353125 -1.2578125 60.1953125 C-2.5778125 60.1953125 -3.8978125 60.1953125 -5.2578125 60.1953125 C-5.3041054 52.6676247 -5.33966615 45.13995162 -5.36143684 37.61215401 C-5.37188448 34.11687323 -5.38606133 30.62168967 -5.40869141 27.12646484 C-5.43453203 23.11034194 -5.44427716 19.09432153 -5.453125 15.078125 C-5.46344757 13.81976837 -5.47377014 12.56141174 -5.48440552 11.2649231 C-5.48455658 10.10387054 -5.48470764 8.94281799 -5.48486328 7.74658203 C-5.4893045 6.72065948 -5.49374573 5.69473694 -5.49832153 4.63772583 C-5.10669614 0.66069813 -3.87174231 0.23211884 0 0 Z " fill="#02A243" transform="translate(60.2578125,56.8046875)"/>
<path d="M0 0 C1.32 0 2.64 0 4 0 C4 15.84 4 31.68 4 48 C2.35 48 0.7 48 -1 48 C-1.02526945 41.3247966 -1.04283268 34.64960543 -1.05493164 27.97436523 C-1.05997325 25.70157409 -1.06680637 23.4287862 -1.07543945 21.15600586 C-1.08751261 17.89696449 -1.09322987 14.63796583 -1.09765625 11.37890625 C-1.10281754 10.35599991 -1.10797882 9.33309357 -1.11329651 8.27919006 C-1.11337204 7.33829025 -1.11344757 6.39739044 -1.11352539 5.42797852 C-1.115746 4.59524918 -1.11796661 3.76251984 -1.12025452 2.90455627 C-1 1 -1 1 0 0 Z " fill="#EB7A05" transform="translate(78,69)"/>
<path d="M0 0 C1.28132813 0.00902344 2.56265625 0.01804687 3.8828125 0.02734375 C4.87023438 0.03894531 5.85765625 0.05054687 6.875 0.0625 C6.875 0.3925 6.875 0.7225 6.875 1.0625 C2.915 1.0625 -1.045 1.0625 -5.125 1.0625 C-5.125 15.5825 -5.125 30.1025 -5.125 45.0625 C-6.445 45.0625 -7.765 45.0625 -9.125 45.0625 C-9.125 30.5425 -9.125 16.0225 -9.125 1.0625 C-6.12186252 -0.43906874 -3.33432478 -0.03031204 0 0 Z " fill="#364250" transform="translate(20.125,71.9375)"/>
<path d="M0 0 C1.28132813 0.00902344 2.56265625 0.01804687 3.8828125 0.02734375 C4.87023438 0.03894531 5.85765625 0.05054687 6.875 0.0625 C6.875 0.3925 6.875 0.7225 6.875 1.0625 C2.915 1.0625 -1.045 1.0625 -5.125 1.0625 C-5.125 11.6225 -5.125 22.1825 -5.125 33.0625 C-6.445 33.0625 -7.765 33.0625 -9.125 33.0625 C-9.125 22.5025 -9.125 11.9425 -9.125 1.0625 C-6.12186252 -0.43906874 -3.33432478 -0.03031204 0 0 Z " fill="#02A5DD" transform="translate(42.125,83.9375)"/>
<path d="M0 0 C38.94 0 77.88 0 118 0 C118 0.33 118 0.66 118 1 C80.38 1 42.76 1 4 1 C4 1.66 4 2.32 4 3 C2.35 2.67 0.7 2.34 -1 2 C-0.67 1.34 -0.34 0.68 0 0 Z " fill="#C9C0B9" transform="translate(5,121)"/>
<path d="M0 0 C13.2 0 26.4 0 40 0 C40 0.33 40 0.66 40 1 C28.12 1 16.24 1 4 1 C4 1.66 4 2.32 4 3 C2.35 2.67 0.7 2.34 -1 2 C-0.67 1.34 -0.34 0.68 0 0 Z " fill="#C1B8B3" transform="translate(5,121)"/>
<path d="M0 0 C1.98 0.495 1.98 0.495 4 1 C3.67 2.32 3.34 3.64 3 5 C1.68 4.67 0.36 4.34 -1 4 C-0.67 2.68 -0.34 1.36 0 0 Z " fill="#C63B20" transform="translate(107,4)"/>
<path d="M0 0 C0.99 0 1.98 0 3 0 C3 1.65 3 3.3 3 5 C1.68 4.67 0.36 4.34 -1 4 C-0.67 2.68 -0.34 1.36 0 0 Z " fill="#DC8604" transform="translate(85,38)"/>
<path d="M0 0 C1.98 0.495 1.98 0.495 4 1 C4 1.99 4 2.98 4 4 C2.35 3.67 0.7 3.34 -1 3 C-0.67 2.01 -0.34 1.02 0 0 Z " fill="#434D58" transform="translate(18,42)"/>
</svg>
