<?xml version="1.0" encoding="UTF-8"?>
<svg version="1.1" xmlns="http://www.w3.org/2000/svg" width="128" height="128">
<path d="M0 0 C1.39992188 0.83192871 1.39992188 0.83192871 2.828125 1.68066406 C3.82972656 2.29006836 4.83132812 2.89947266 5.86328125 3.52734375 C8.02286527 4.81606357 10.18304263 6.10378951 12.34375 7.390625 C14.02476807 8.39730225 14.02476807 8.39730225 15.73974609 9.42431641 C20.24738807 12.10122927 24.79397463 14.70688885 29.34545898 17.30834961 C33.65932667 19.77788943 37.95653019 22.27561782 42.25292969 24.77539062 C44.94791413 26.33313305 47.65745097 27.86181906 50.37109375 29.38671875 C51.84857639 30.24451083 53.32521555 31.10375835 54.80078125 31.96484375 C55.46400391 32.32545898 56.12722656 32.68607422 56.81054688 33.05761719 C60.07415346 35.008258 61.09296384 36.17127959 62.13671875 39.87109375 C60.87493666 44.58995362 59.01707179 45.54185597 54.92578125 47.95507812 C54.01828125 48.45330078 53.11078125 48.95152344 52.17578125 49.46484375 C51.24765625 49.99916016 50.31953125 50.53347656 49.36328125 51.08398438 C46.316533 52.82411519 43.24980895 54.52340891 40.17578125 56.21484375 C30.9904004 61.27568882 30.9904004 61.27568882 21.9765625 66.6328125 C21.20892578 67.10428711 20.44128906 67.57576172 19.65039062 68.06152344 C18.25083657 68.92944923 16.85950373 69.81083527 15.47851562 70.70800781 C12.69390486 72.42774401 10.61244006 73.44873748 7.31640625 73.5703125 C1.78920387 71.62479226 -2.98862436 68.35365237 -7.92382812 65.23828125 C-8.73787109 64.74328125 -9.55191406 64.24828125 -10.390625 63.73828125 C-11.12224854 63.27856934 -11.85387207 62.81885742 -12.60766602 62.34521484 C-15.44849125 61.21689501 -16.9391471 61.55661839 -19.82421875 62.46484375 C-22.95068495 64.43135773 -25.89806978 66.58094226 -28.88671875 68.75 C-31.94842849 70.53735449 -33.36217798 70.95338957 -36.82421875 70.46484375 C-38.69921875 69.33984375 -38.69921875 69.33984375 -39.82421875 67.46484375 C-39.7734375 64.55859375 -39.7734375 64.55859375 -38.82421875 61.46484375 C-36.1015625 59.56640625 -36.1015625 59.56640625 -32.76171875 58.08984375 C-31.65699219 57.58710937 -30.55226563 57.084375 -29.4140625 56.56640625 C-28.55941406 56.20289063 -27.70476563 55.839375 -26.82421875 55.46484375 C-30.11507743 52.72277031 -33.38793346 50.44602718 -37.1328125 48.37109375 C-38.12732422 47.81550781 -39.12183594 47.25992188 -40.14648438 46.6875 C-41.17451172 46.11902344 -42.20253906 45.55054688 -43.26171875 44.96484375 C-47.12796857 42.81881962 -50.98464212 40.6582621 -54.82421875 38.46484375 C-55.49936523 38.08618164 -56.17451172 37.70751953 -56.87011719 37.31738281 C-60.66786953 35.03603955 -60.66786953 35.03603955 -61.41015625 32.32421875 C-61.21484375 30.37109375 -61.01953125 28.41796875 -60.82421875 26.46484375 C-59.36884307 25.62635571 -57.90981502 24.79420441 -56.44921875 23.96484375 C-55.23105469 23.26875 -55.23105469 23.26875 -53.98828125 22.55859375 C-51.82421875 21.46484375 -51.82421875 21.46484375 -49.82421875 21.46484375 C-49.82421875 20.80484375 -49.82421875 20.14484375 -49.82421875 19.46484375 C-49.07849609 19.0366333 -48.33277344 18.60842285 -47.56445312 18.16723633 C-44.76070001 16.55629655 -41.95773526 14.94399551 -39.15527344 13.33081055 C-37.9492006 12.63691664 -36.7428277 11.943544 -35.53613281 11.25073242 C-27.28703266 6.52337778 -27.28703266 6.52337778 -19.1796875 1.55859375 C-12.49020184 -2.6155207 -6.94255426 -4.18917614 0 0 Z " fill="#FBFAF9" transform="translate(63.82421875,49.53515625)"/>
<path d="M0 0 C2.3581543 1.04711914 2.3581543 1.04711914 4.82421875 2.53515625 C6.22414063 3.36708496 6.22414063 3.36708496 7.65234375 4.21582031 C8.65394531 4.82522461 9.65554687 5.43462891 10.6875 6.0625 C12.84708402 7.35121982 15.00726138 8.63894576 17.16796875 9.92578125 C18.84898682 10.9324585 18.84898682 10.9324585 20.56396484 11.95947266 C25.07160682 14.63638552 29.61819338 17.2420451 34.16967773 19.84350586 C38.48354542 22.31304568 42.78074894 24.81077407 47.07714844 27.31054688 C49.77213288 28.8682893 52.48166972 30.39697531 55.1953125 31.921875 C56.67279514 32.77966708 58.1494343 33.6389146 59.625 34.5 C60.28822266 34.86061523 60.95144531 35.22123047 61.63476562 35.59277344 C64.89837221 37.54341425 65.91718259 38.70643584 66.9609375 42.40625 C65.69915541 47.12510987 63.84129054 48.07701222 59.75 50.49023438 C58.8425 50.98845703 57.935 51.48667969 57 52 C56.071875 52.53431641 55.14375 53.06863281 54.1875 53.61914062 C51.14075175 55.35927144 48.0740277 57.05856516 45 58.75 C35.81461915 63.81084507 35.81461915 63.81084507 26.80078125 69.16796875 C26.03314453 69.63944336 25.26550781 70.11091797 24.47460938 70.59667969 C23.07505532 71.46460548 21.68372248 72.34599152 20.30273438 73.24316406 C17.51812361 74.96290026 15.43665881 75.98389373 12.140625 76.10546875 C6.61342262 74.15994851 1.83559439 70.88880862 -3.09960938 67.7734375 C-3.91365234 67.2784375 -4.72769531 66.7834375 -5.56640625 66.2734375 C-6.29802979 65.81372559 -7.02965332 65.35401367 -7.78344727 64.88037109 C-10.6242725 63.75205126 -12.11492835 64.09177464 -15 65 C-18.1264662 66.96651398 -21.07385103 69.11609851 -24.0625 71.28515625 C-27.12420974 73.07251074 -28.53795923 73.48854582 -32 73 C-33.875 71.875 -33.875 71.875 -35 70 C-34.94921875 67.09375 -34.94921875 67.09375 -34 64 C-31.27734375 62.1015625 -31.27734375 62.1015625 -27.9375 60.625 C-26.83277344 60.12226562 -25.72804688 59.61953125 -24.58984375 59.1015625 C-23.73519531 58.73804688 -22.88054688 58.37453125 -22 58 C-25.29085868 55.25792656 -28.56371471 52.98118343 -32.30859375 50.90625 C-33.30310547 50.35066406 -34.29761719 49.79507813 -35.32226562 49.22265625 C-36.35029297 48.65417969 -37.37832031 48.08570313 -38.4375 47.5 C-42.30374982 45.35397587 -46.16042337 43.19341835 -50 41 C-50.67514648 40.62133789 -51.35029297 40.24267578 -52.04589844 39.85253906 C-55.84365078 37.5711958 -55.84365078 37.5711958 -56.5859375 34.859375 C-56.390625 32.90625 -56.1953125 30.953125 -56 29 C-52.04 27.02 -48.08 25.04 -44 23 C-44 23.66 -44 24.32 -44 25 C-43.01 25.33 -42.02 25.66 -41 26 C-41.33 26.66 -41.66 27.32 -42 28 C-44.5625 28.625 -44.5625 28.625 -47 29 C-47 29.99 -47 30.98 -47 32 C-46.29504395 32.39268066 -45.59008789 32.78536133 -44.86376953 33.18994141 C-41.6165818 34.99996267 -38.37078565 36.81246577 -35.125 38.625 C-34.01640625 39.24246094 -32.9078125 39.85992187 -31.765625 40.49609375 C-30.12207031 41.41455078 -30.12207031 41.41455078 -28.4453125 42.3515625 C-27.35766602 42.95774414 -26.27001953 43.56392578 -25.14941406 44.18847656 C-21.41315408 46.33755013 -17.7985555 48.65112532 -14.21435547 51.04443359 C-11.37881825 52.26806013 -9.92760834 51.83250364 -7 51 C-5.00102872 50.66055205 -3.00124361 50.32578384 -1 50 C-1.75 54.75 -1.75 54.75 -4 57 C-1.44921084 58.56464388 1.11253963 60.1010896 3.6875 61.625 C4.7693457 62.29402344 4.7693457 62.29402344 5.87304688 62.9765625 C6.57880859 63.3890625 7.28457031 63.8015625 8.01171875 64.2265625 C8.65584717 64.61408691 9.29997559 65.00161133 9.96362305 65.40087891 C13.64022387 66.48256916 16.36154687 64.33329418 19.59277344 62.64648438 C20.50575195 62.13408203 21.41873047 61.62167969 22.359375 61.09375 C23.38554932 60.51898926 24.41172363 59.94422852 25.46899414 59.35205078 C26.55172607 58.74087402 27.63445801 58.12969727 28.75 57.5 C29.85786865 56.87722168 30.9657373 56.25444336 32.10717773 55.61279297 C41.13863815 50.52087166 50.09785622 45.31434718 59 40 C49.55375707 34.01482988 39.88463342 28.43258217 30.18139648 22.87646484 C24.61961133 19.68657646 19.08349415 16.46620539 13.6015625 13.140625 C12.60310303 12.53758545 11.60464355 11.9345459 10.57592773 11.31323242 C8.69225863 10.17150382 6.81386476 9.02101238 4.94165039 7.8605957 C4.09852295 7.35101318 3.25539551 6.84143066 2.38671875 6.31640625 C1.65670654 5.86724854 0.92669434 5.41809082 0.17456055 4.95532227 C-2.36517726 3.83957128 -4.25477994 3.82144176 -7 4 C-7 3.01 -7 2.02 -7 1 C-4.43606174 -0.28196913 -2.85344439 -0.23555297 0 0 Z " fill="#F1506F" transform="translate(59,47)"/>
<path d="M0 0 C0.99 0.66 1.98 1.32 3 2 C3.29296875 4.6015625 3.29296875 4.6015625 3.1875 7.625 C3.16042969 8.62789062 3.13335937 9.63078125 3.10546875 10.6640625 C3.07066406 11.43492188 3.03585938 12.20578125 3 13 C4.98 13 6.96 13 9 13 C9.33 12.01 9.66 11.02 10 10 C13.48868651 7.67420899 14.89718519 7.58134543 19 8 C21.14453125 9.1015625 21.14453125 9.1015625 23 11 C23.609375 14.13671875 23.609375 14.13671875 23.75 17.6875 C23.80671875 18.86699219 23.8634375 20.04648437 23.921875 21.26171875 C23.94765625 22.16535156 23.9734375 23.06898437 24 24 C24.928125 24.12375 25.85625 24.2475 26.8125 24.375 C30 25 30 25 33 27 C33.70145091 31.43993959 33.50920309 35.94869469 33.5 40.4375 C33.52835938 41.69111328 33.55671875 42.94472656 33.5859375 44.23632812 C33.58980469 46.03553711 33.58980469 46.03553711 33.59375 47.87109375 C33.60083984 48.97380615 33.60792969 50.07651855 33.61523438 51.21264648 C33 54 33 54 30.61914062 55.88305664 C27.41119724 57.25109737 26.23052243 57.29220897 23 56 C21.33333333 54.33333333 19.66666667 52.66666667 18 51 C15.48051222 50.26259783 15.48051222 50.26259783 13 50 C10.75 49.125 10.75 49.125 9 48 C8.67 47.01 8.34 46.02 8 45 C6.6078125 44.814375 6.6078125 44.814375 5.1875 44.625 C2 44 2 44 -1 42 C-1 41.01 -1 40.02 -1 39 C-2.6396875 38.814375 -2.6396875 38.814375 -4.3125 38.625 C-8 38 -8 38 -11 36 C-11.32934594 33.4113792 -11.46802846 31.06616166 -11.46875 28.47265625 C-11.47636353 27.72793564 -11.48397705 26.98321503 -11.49182129 26.21592712 C-11.5026329 24.63983515 -11.50547106 23.06367147 -11.50097656 21.48754883 C-11.50000482 19.07446814 -11.54159239 16.66457362 -11.5859375 14.25195312 C-11.59114492 12.72136081 -11.59383269 11.19075742 -11.59375 9.66015625 C-11.61014526 8.93820572 -11.62654053 8.21625519 -11.64343262 7.47242737 C-11.61523438 5.42993164 -11.61523438 5.42993164 -11 2 C-7.18456062 -1.24304392 -4.75811265 -1.34468401 0 0 Z " fill="#6A89EB" transform="translate(86,19)"/>
<path d="M0 0 C0 11.55 0 23.1 0 35 C-2.97 36.65 -5.94 38.3 -9 40 C-11.27535838 43.00442721 -11.27535838 43.00442721 -12.5625 46.3125 C-13.03816406 47.38113281 -13.51382812 48.44976562 -14.00390625 49.55078125 C-14.33261719 50.35902344 -14.66132813 51.16726562 -15 52 C-17.4375 51.1875 -17.4375 51.1875 -20 50 C-20.495 48.515 -20.495 48.515 -21 47 C-25.95 49.475 -25.95 49.475 -31 52 C-31.99 51.34 -32.98 50.68 -34 50 C-34.42923804 47.47171129 -34.65906702 45.1943798 -34.75 42.6484375 C-34.77658691 41.91557526 -34.80317383 41.18271301 -34.83056641 40.42764282 C-34.8764754 38.87274403 -34.91283354 37.31753862 -34.94042969 35.76220703 C-34.97989975 34.18049283 -35.04793366 32.59921458 -35.14550781 31.02001953 C-35.47083078 25.74292687 -35.46545917 21.11299231 -34 16 C-30.17334523 12.13584962 -25.93651201 10.16860007 -21 8 C-19.45340256 7.0974135 -17.91922014 6.17273069 -16.40625 5.21484375 C-15.10546701 4.45350312 -13.80343545 3.69429058 -12.5 2.9375 C-11.50613281 2.33518555 -11.50613281 2.33518555 -10.4921875 1.72070312 C-6.14520862 -0.78617015 -5.195195 -1.039039 0 0 Z " fill="#FBB55E" transform="translate(45,6)"/>
<path d="M0 0 C0.66 0.33 1.32 0.66 2 1 C1.01 1.99 0.02 2.98 -1 4 C2.60112644 5.70053193 4.22762447 6.02882969 8 5 C10.00946222 5.27050453 12.01354224 5.59367909 14 6 C14.33 5.01 14.66 4.02 15 3 C16.98 3.33 18.96 3.66 21 4 C21 4.66 21 5.32 21 6 C22.65 6.33 24.3 6.66 26 7 C26 7.66 26 8.32 26 9 C25.20335938 9.09796875 24.40671875 9.1959375 23.5859375 9.296875 C15.07243548 10.49829378 9.95916078 12.12391398 4.625 19.125 C1.52607643 24.0039841 1.15540466 28.34441854 2 34 C2.33 34.66 2.66 35.32 3 36 C3.804375 35.979375 4.60875 35.95875 5.4375 35.9375 C8 36 8 36 9 37 C9.04063832 38.66617115 9.042721 40.33388095 9 42 C19.09212657 44.64711517 27.90787343 44.64711517 38 42 C35.72282768 46.72887246 32.57598242 48.93440074 28.125 51.4375 C27.20654297 52.00114258 27.20654297 52.00114258 26.26953125 52.57617188 C23.48555767 54.17084625 21.71924516 55.15017207 18.51171875 54.48046875 C17.68285156 53.99191406 16.85398438 53.50335938 16 53 C15.43990234 52.69344482 14.87980469 52.38688965 14.30273438 52.07104492 C12.41286555 51.03475357 10.5495488 49.96039611 8.6875 48.875 C8.04232422 48.50246094 7.39714844 48.12992188 6.73242188 47.74609375 C5.15324055 46.83367787 3.57638136 45.91724491 2 45 C2.474375 44.5875 2.94875 44.175 3.4375 43.75 C5.16266518 41.817815 5.56584875 40.51807725 6 38 C5.22076172 38.34224609 5.22076172 38.34224609 4.42578125 38.69140625 C3.72839844 38.97886719 3.03101563 39.26632813 2.3125 39.5625 C1.62800781 39.85253906 0.94351563 40.14257812 0.23828125 40.44140625 C-4.75342858 41.68715582 -8.59075328 39.30999923 -12.82421875 36.83203125 C-13.93603516 36.18556641 -15.04785156 35.53910156 -16.19335938 34.87304688 C-17.3581425 34.18631593 -18.52285572 33.49946639 -19.6875 32.8125 C-20.82123047 32.15185547 -21.95496094 31.49121094 -23.12304688 30.81054688 C-29.77911485 26.9243239 -36.40132435 22.98281559 -43 19 C-41.35 17.68 -39.7 16.36 -38 15 C-31.25 17.875 -31.25 17.875 -29 19 C-29.33 19.66 -29.66 20.32 -30 21 C-27.95976672 22.5048792 -27.95976672 22.5048792 -25 23 C-22.09918899 21.65415238 -19.56645361 19.89777463 -17 18 C-17.66 17.38125 -18.32 16.7625 -19 16.125 C-21 14 -21 14 -21 12 C-19.35 11.34 -17.7 10.68 -16 10 C-15.67 10.99 -15.34 11.98 -15 13 C-12.8949521 13.97861264 -12.8949521 13.97861264 -10 14 C-7.15031132 12.58832428 -4.58136476 10.85115239 -2 9 C-4.16924452 7.67993427 -4.16924452 7.67993427 -7 7 C-10.1668838 8.37492804 -10.1668838 8.37492804 -13 10 C-13.66 9.67 -14.32 9.34 -15 9 C-12.54732365 7.46931512 -10.08866106 5.95031377 -7.625 4.4375 C-6.92632812 3.99986328 -6.22765625 3.56222656 -5.5078125 3.11132812 C-3.70814097 2.01249022 -1.85677657 0.99932133 0 0 Z " fill="#F9F9FB" transform="translate(52,59)"/>
<path d="M0 0 C-0.0625 2.25 -0.0625 2.25 -1 5 C-3.65742095 7.0898813 -6.53550551 9 -10 9 C-9.88335484 10.91520245 -9.88335484 10.91520245 -9 13 C-6.48201233 14.72170097 -3.86131164 16.03932303 -1.15234375 17.4375 C-0.08693359 18.2109375 -0.08693359 18.2109375 1 19 C1 20.32 1 21.64 1 23 C3.5963677 21.94352227 3.5963677 21.94352227 6 20 C6.60481772 17.03618482 6.60481772 17.03618482 6.3125 13.8125 C6.26738281 12.72582031 6.22226563 11.63914062 6.17578125 10.51953125 C6.11777344 9.68808594 6.05976562 8.85664062 6 8 C9.02346184 10.26759638 10.74154811 11.59236026 11.4375 15.3828125 C11.52612407 19.09394552 11.22918225 22.26334277 10.125 25.8125 C4.56477898 31.53625693 -3.36075242 34.1144719 -11.1875 34.25 C-16.59204429 34.22094331 -21.03370193 33.06009401 -26 31 C-26.33 29.35 -26.66 27.7 -27 26 C-28.175625 26.0928125 -28.175625 26.0928125 -29.375 26.1875 C-30.24125 26.125625 -31.1075 26.06375 -32 26 C-34.87937094 21.6809436 -34.93543333 18.06276514 -34 13 C-30.99283557 6.92500788 -27.05375233 2.09414008 -21 -1 C-14.00251049 -3.15755927 -6.80846575 -2.368162 0 0 Z " fill="#6DB2F8" transform="translate(87,70)"/>
<path d="M0 0 C1.9609375 0.05078125 1.9609375 0.05078125 4.375 0.3125 C5.16648438 0.39113281 5.95796875 0.46976563 6.7734375 0.55078125 C9 1 9 1 12 3 C11.67 4.32 11.34 5.64 11 7 C10.34 6.67 9.68 6.34 9 6 C9.33 5.34 9.66 4.68 10 4 C9.443125 4.28875 8.88625 4.5775 8.3125 4.875 C5.91505355 6.0413253 3.48403061 7.0339881 1 8 C1 8.66 1 9.32 1 10 C2.98 9.34 4.96 8.68 7 8 C4.20957375 11.28834617 0.52671824 13.12735689 -3.1875 15.1875 C-3.84169922 15.55552734 -4.49589844 15.92355469 -5.16992188 16.30273438 C-6.77746961 17.2062466 -8.38840651 18.1037241 -10 19 C-9.48050781 18.74863281 -8.96101563 18.49726562 -8.42578125 18.23828125 C-6.27710727 17.29699524 -4.29243595 16.50848856 -2 16 C1 17.3125 1 17.3125 3 19 C-4.34210526 25.11842105 -4.34210526 25.11842105 -8.625 24.8125 C-11 24 -11 24 -13 21 C-14.32 21.33 -15.64 21.66 -17 22 C-15.35 23.98 -13.7 25.96 -12 28 C-14.97 29.98 -17.94 31.96 -21 34 C-22.98 33.01 -24.96 32.02 -27 31 C-27 30.34 -27 29.68 -27 29 C-28.32 28.34 -29.64 27.68 -31 27 C-31 26.01 -31 25.02 -31 24 C-32.43750191 22.31201173 -32.43750191 22.31201173 -34 21 C-30.33950007 17.91749626 -26.58790363 15.49329323 -22.421875 13.14453125 C-21.80983215 12.79742599 -21.19778931 12.45032074 -20.56719971 12.09269714 C-18.63044777 10.99514355 -16.69044104 9.90351587 -14.75 8.8125 C-12.79584521 7.70980523 -10.84241086 6.60586557 -8.88995361 5.50016785 C-7.12957025 4.5038347 -5.36708156 3.51122415 -3.60449219 2.51879883 C-1.15170804 1.23658423 -1.15170804 1.23658423 0 0 Z " fill="#C8CDE0" transform="translate(48,49)"/>
<path d="M0 0 C2.3581543 1.04711914 2.3581543 1.04711914 4.82421875 2.53515625 C6.22414063 3.36708496 6.22414063 3.36708496 7.65234375 4.21582031 C8.65394531 4.82522461 9.65554687 5.43462891 10.6875 6.0625 C12.84708402 7.35121982 15.00726138 8.63894576 17.16796875 9.92578125 C18.28864746 10.59689941 19.40932617 11.26801758 20.56396484 11.95947266 C26.17119848 15.28939015 31.83921174 18.51229968 37.5 21.75 C47.14054472 27.28689119 56.64475103 32.99398669 66 39 C63.46910834 41.84981639 60.62549149 43.50415926 57.3203125 45.37109375 C56.17304687 46.02279541 55.02578125 46.67449707 53.84375 47.34594727 C52.6043508 48.0434588 51.36476361 48.74063638 50.125 49.4375 C48.22439483 50.51043119 46.32438609 51.58441207 44.42449951 52.65861511 C43.14428003 53.38236942 41.8637202 54.10552201 40.58282471 54.82807922 C36.56900263 57.09644973 32.5847479 59.409047 28.6171875 61.7578125 C27.66183105 62.31927979 26.70647461 62.88074707 25.72216797 63.45922852 C23.9421729 64.50758974 22.16748369 65.56502604 20.39892578 66.63256836 C19.60728027 67.09542236 18.81563477 67.55827637 18 68.03515625 C17.319375 68.4412915 16.63875 68.84742676 15.9375 69.26586914 C13.47423559 70.19921542 12.44090218 69.93122497 10 69 C8.60489019 68.28570784 7.23550337 67.51973308 5.890625 66.71484375 C5.13652344 66.26689453 4.38242187 65.81894531 3.60546875 65.35742188 C2.82816406 64.88884766 2.05085938 64.42027344 1.25 63.9375 C0.06083984 63.22883789 0.06083984 63.22883789 -1.15234375 62.50585938 C-3.1043111 61.34173427 -5.05335805 60.17300098 -7 59 C-6.67 58.34 -6.34 57.68 -6 57 C-0.27839715 58.67128787 4.14199846 61.49438252 9.09765625 64.734375 C11.87251598 66.32246924 11.87251598 66.32246924 14.34643555 65.26074219 C17.07986765 63.96205387 19.72021537 62.57495855 22.359375 61.09375 C23.38554932 60.51898926 24.41172363 59.94422852 25.46899414 59.35205078 C26.55172607 58.74087402 27.63445801 58.12969727 28.75 57.5 C29.85786865 56.87722168 30.9657373 56.25444336 32.10717773 55.61279297 C41.13863815 50.52087166 50.09785622 45.31434718 59 40 C49.55375707 34.01482988 39.88463342 28.43258217 30.18139648 22.87646484 C24.61961133 19.68657646 19.08349415 16.46620539 13.6015625 13.140625 C12.60310303 12.53758545 11.60464355 11.9345459 10.57592773 11.31323242 C8.69225863 10.17150382 6.81386476 9.02101238 4.94165039 7.8605957 C3.67695923 7.09622192 3.67695923 7.09622192 2.38671875 6.31640625 C1.29170044 5.64266968 1.29170044 5.64266968 0.17456055 4.95532227 C-2.36517726 3.83957128 -4.25477994 3.82144176 -7 4 C-7 3.01 -7 2.02 -7 1 C-4.43606174 -0.28196913 -2.85344439 -0.23555297 0 0 Z " fill="#D8A363" transform="translate(59,47)"/>
<path d="M0 0 C0.5625 2.625 0.5625 2.625 0 6 C-6.04634981 11.30265155 -13.99112015 14.89347535 -21 18.75 C-30.18538085 23.81084507 -30.18538085 23.81084507 -39.19921875 29.16796875 C-39.96685547 29.63944336 -40.73449219 30.11091797 -41.52539062 30.59667969 C-42.92494468 31.46460548 -44.31627752 32.34599152 -45.69726562 33.24316406 C-48.60610994 35.03962515 -50.43132196 36.04524831 -53.89038086 35.77001953 C-57.06690143 34.98343353 -59.36497736 33.92794537 -62.1796875 32.27734375 C-63.1078125 31.73916016 -64.0359375 31.20097656 -64.9921875 30.64648438 C-65.94351563 30.08251953 -66.89484375 29.51855469 -67.875 28.9375 C-68.84953125 28.36966797 -69.8240625 27.80183594 -70.828125 27.21679688 C-73.2237038 25.81937591 -75.61396262 24.41363019 -78 23 C-77 20 -77 20 -75.19702148 18.67211914 C-73 18 -73 18 -70.97290039 18.79858398 C-70.27156982 19.27626221 -69.57023926 19.75394043 -68.84765625 20.24609375 C-68.07099609 20.75333984 -67.29433594 21.26058594 -66.49414062 21.78320312 C-65.29047852 22.60208008 -65.29047852 22.60208008 -64.0625 23.4375 C-62.47915483 24.51223227 -60.88693458 25.57403236 -59.28515625 26.62109375 C-58.58269775 27.0998999 -57.88023926 27.57870605 -57.15649414 28.07202148 C-54.27679772 29.31120705 -52.96474938 28.96625156 -50 28 C-48.00590505 27.0104165 -46.04981996 25.9425918 -44.125 24.82421875 C-42.41340698 23.83711914 -42.41340698 23.83711914 -40.66723633 22.83007812 C-39.44478669 22.11594966 -38.22237533 21.40175566 -37 20.6875 C-35.74871574 19.9634582 -34.497003 19.24015643 -33.24487305 18.51757812 C-30.71387097 17.05590594 -28.18489604 15.59082686 -25.65771484 14.12255859 C-20.38740682 11.06177051 -15.10103689 8.02915226 -9.8125 5 C-8.48702148 4.23562622 -8.48702148 4.23562622 -7.13476562 3.45581055 C-6.33361328 2.99601807 -5.53246094 2.53622559 -4.70703125 2.0625 C-3.66252808 1.46115234 -3.66252808 1.46115234 -2.59692383 0.84765625 C-1 0 -1 0 0 0 Z " fill="#AB6356" transform="translate(125,87)"/>
<path d="M0 0 C0.99 0.66 1.98 1.32 3 2 C3.36328125 4.75 3.36328125 4.75 3.3125 8 C3.30863281 9.0725 3.30476563 10.145 3.30078125 11.25 C3 14 3 14 1 16 C0.64587926 18.30866403 0.64587926 18.30866403 0.62109375 20.97265625 C0.58693359 21.95427734 0.55277344 22.93589844 0.51757812 23.94726562 C0.49115234 24.97529297 0.46472656 26.00332031 0.4375 27.0625 C0.37782739 29.09517751 0.31424165 31.12774523 0.24609375 33.16015625 C0.22216553 34.06386963 0.1982373 34.96758301 0.17358398 35.89868164 C0 38 0 38 -1 39 C-5.09789669 38.62056512 -7.53958935 38.30694043 -11 36 C-11.32934594 33.4113792 -11.46802846 31.06616166 -11.46875 28.47265625 C-11.47636353 27.72793564 -11.48397705 26.98321503 -11.49182129 26.21592712 C-11.5026329 24.63983515 -11.50547106 23.06367147 -11.50097656 21.48754883 C-11.50000482 19.07446814 -11.54159239 16.66457362 -11.5859375 14.25195312 C-11.59114492 12.72136081 -11.59383269 11.19075742 -11.59375 9.66015625 C-11.61014526 8.93820572 -11.62654053 8.21625519 -11.64343262 7.47242737 C-11.61523438 5.42993164 -11.61523438 5.42993164 -11 2 C-7.18456062 -1.24304392 -4.75811265 -1.34468401 0 0 Z " fill="#FABD25" transform="translate(86,19)"/>
<path d="M0 0 C0.99 0.66 1.98 1.32 3 2 C3.70145091 6.43993959 3.50920309 10.94869469 3.5 15.4375 C3.52835938 16.69111328 3.55671875 17.94472656 3.5859375 19.23632812 C3.58851562 20.43580078 3.59109375 21.63527344 3.59375 22.87109375 C3.60083984 23.97380615 3.60792969 25.07651855 3.61523438 26.21264648 C3 29 3 29 0.62304688 30.89086914 C-2.53054545 32.22433618 -3.80339202 32.1475003 -7 31 C-9.1328125 29.8125 -9.1328125 29.8125 -11 28 C-11.42578125 25.3203125 -11.42578125 25.3203125 -11.3125 22.125 C-11.27253906 20.97515625 -11.23257813 19.8253125 -11.19140625 18.640625 C-11.12824219 17.43921875 -11.06507812 16.2378125 -11 15 C-10.96777344 13.79859375 -10.93554688 12.5971875 -10.90234375 11.359375 C-10.51597794 2.52249556 -10.51597794 2.52249556 -8.14453125 0.12109375 C-5.09573266 -1.47272264 -3.25387637 -0.90000836 0 0 Z " fill="#E93764" transform="translate(116,44)"/>
<path d="M0 0 C3.02346184 2.26759638 4.74154811 3.59236026 5.4375 7.3828125 C5.52612407 11.09394552 5.22918225 14.26334277 4.125 17.8125 C-1.43522102 23.53625693 -9.36075242 26.1144719 -17.1875 26.25 C-22.59204429 26.22094331 -27.03370193 25.06009401 -32 23 C-32.33 21.35 -32.66 19.7 -33 18 C-34.175625 18.0928125 -34.175625 18.0928125 -35.375 18.1875 C-36.24125 18.125625 -37.1075 18.06375 -38 18 C-40.80908387 13.7863742 -40.69707949 9.95250658 -40 5 C-38 2.375 -38 2.375 -36 1 C-36.04640625 1.59167969 -36.0928125 2.18335937 -36.140625 2.79296875 C-36.31897572 6.69757552 -36.33457925 9.3308415 -34.5625 12.875 C-28.55441447 17.85731483 -21.56242413 18.54835174 -13.9453125 18.36328125 C-8.602524 17.70429009 -3.82679009 15.82679009 0 12 C0.24339551 9.10116917 0.24339551 9.10116917 0.125 5.875 C0.10695312 4.77929688 0.08890625 3.68359375 0.0703125 2.5546875 C0.04710937 1.71164063 0.02390625 0.86859375 0 0 Z " fill="#1B263C" transform="translate(93,78)"/>
<path d="M0 0 C2.33716009 2.33716009 1.17162619 8.18832888 1.18554688 11.29882812 C1.18542603 12.31698608 1.18542603 12.31698608 1.18530273 13.35571289 C1.18748734 15.42550264 1.20563491 17.49475793 1.22460938 19.56445312 C1.22750977 21.51061523 1.22750977 21.51061523 1.23046875 23.49609375 C1.23457764 24.69419678 1.23868652 25.8922998 1.24291992 27.12670898 C1 30 1 30 -1 32 C-4.80909895 31.67582137 -6.78372163 31.14418558 -10 29 C-10.29638672 26.43383789 -10.29638672 26.43383789 -10.1796875 23.22265625 C-10.1384375 22.06958984 -10.0971875 20.91652344 -10.0546875 19.72851562 C-9.99539062 18.51873047 -9.93609375 17.30894531 -9.875 16.0625 C-9.83890625 14.85658203 -9.8028125 13.65066406 -9.765625 12.40820312 C-9.38918477 3.53709196 -9.38918477 3.53709196 -7.65673828 1.14624023 C-5.13425819 -0.59897698 -2.97584329 -0.25876898 0 0 Z " fill="#5FC06A" transform="translate(95,32)"/>
<path d="M0 0 C0.49669189 0.34466309 0.99338379 0.68932617 1.50512695 1.04443359 C8.19620375 5.60348693 15.15276436 9.62337134 22.1875 13.625 C24.47416029 14.92709491 26.75891843 16.2323794 29.04296875 17.5390625 C30.04352295 18.10834473 31.04407715 18.67762695 32.07495117 19.26416016 C35.1360169 21.08071781 38.11906336 22.90735272 41 25 C41 25.66 41 26.32 41 27 C38.84814453 28.16381836 38.84814453 28.16381836 36 29 C33.31201172 28.05297852 33.31201172 28.05297852 30.4296875 26.37890625 C29.3675 25.77240234 28.3053125 25.16589844 27.2109375 24.54101562 C26.11007813 23.88810547 25.00921875 23.23519531 23.875 22.5625 C22.79734375 21.94439453 21.7196875 21.32628906 20.609375 20.68945312 C17.38498185 18.82668624 14.19125313 16.91888327 11 15 C9.93322021 14.37971924 8.86644043 13.75943848 7.76733398 13.12036133 C6.76774658 12.52118896 5.76815918 11.9220166 4.73828125 11.3046875 C3.84149658 10.77472168 2.94471191 10.24475586 2.02075195 9.69873047 C0 8 0 8 -0.68286133 5.79736328 C-0.6875 3.5625 -0.6875 3.5625 0 0 Z " fill="#AC6255" transform="translate(3,76)"/>
<path d="M0 0 C3 1 3 1 4 3 C4.33 2.34 4.66 1.68 5 1 C9.96191939 2.77068494 14.42378365 5.3633783 19 7.9375 C19.7940625 8.38029297 20.588125 8.82308594 21.40625 9.27929688 C22.93354272 10.13330805 24.45841729 10.99166275 25.98046875 11.85498047 C27.66808888 12.81181538 29.36429135 13.75349254 31.0625 14.69140625 C32.0215625 15.33916016 32.0215625 15.33916016 33 16 C33 16.66 33 17.32 33 18 C28.05 17.01 28.05 17.01 23 16 C23 15.34 23 14.68 23 14 C20.69 14 18.38 14 16 14 C16 13.01 16 12.02 16 11 C14.68 11 13.36 11 12 11 C11.67 11.66 11.34 12.32 11 13 C9.14375 12.9690625 9.14375 12.9690625 7.25 12.9375 C4.78760994 12.91582403 3.1007281 12.96642397 0.75 13.75 C-0.11625 13.87375 -0.11625 13.87375 -1 14 C-3.25 12.0625 -3.25 12.0625 -5 10 C-3.68 8.68 -2.36 7.36 -1 6 C-2.65 6.33 -4.3 6.66 -6 7 C-6 6.34 -6 5.68 -6 5 C-4.34467377 3.98133771 -2.67739862 2.98189187 -1 2 C-0.67 1.34 -0.34 0.68 0 0 Z " fill="#F7F8F7" transform="translate(55,52)"/>
<path d="M0 0 C1.703125 1.2421875 1.703125 1.2421875 2.703125 2.2421875 C3.01850535 4.52577488 3.25585328 6.82038103 3.453125 9.1171875 C3.57171875 10.37273437 3.6903125 11.62828125 3.8125 12.921875 C3.703125 16.2421875 3.703125 16.2421875 2.40625 18.1875 C0.703125 19.2421875 0.703125 19.2421875 -2.296875 19.2421875 C-2.35746094 18.6440625 -2.41804688 18.0459375 -2.48046875 17.4296875 C-3.90518095 13.61227682 -7.67902001 12.59333846 -11.14453125 10.8046875 C-11.85480469 10.2890625 -12.56507812 9.7734375 -13.296875 9.2421875 C-13.296875 7.9221875 -13.296875 6.6021875 -13.296875 5.2421875 C-11.55852443 4.18119422 -9.80567696 3.14392267 -8.046875 2.1171875 C-7.07234375 1.53710938 -6.0978125 0.95703125 -5.09375 0.359375 C-2.296875 -0.7578125 -2.296875 -0.7578125 0 0 Z " fill="#FDDC99" transform="translate(90.296875,73.7578125)"/>
<path d="M0 0 C0.08333357 4.8333472 -0.04738513 9.23692563 -1 14 C-6.2518167 14.315109 -9.54814877 13.8689708 -14 11 C-16.375 8.3125 -16.375 8.3125 -18 6 C-17.34 5.67 -16.68 5.34 -16 5 C-16 3.68 -16 2.36 -16 1 C-10.59255982 0.22750855 -5.46137814 -0.09752461 0 0 Z " fill="#7CD277" transform="translate(74,82)"/>
<path d="M0 0 C6.75 2.875 6.75 2.875 9 4 C8.67 4.66 8.34 5.32 8 6 C11.3863251 7.50930183 11.3863251 7.50930183 15 8 C14.67 8.99 14.34 9.98 14 11 C14.99 11.33 15.98 11.66 17 12 C17.33 12.66 17.66 13.32 18 14 C20.02463255 14.65213292 20.02463255 14.65213292 22 15 C22 15.66 22 16.32 22 17 C22.680625 17.2475 23.36125 17.495 24.0625 17.75 C26.44425169 18.76351136 28.38454062 19.83096926 30.5625 21.1875 C33.71694249 23.25655465 33.71694249 23.25655465 36.4375 22.75 C36.953125 22.5025 37.46875 22.255 38 22 C38 21.01 38 20.02 38 19 C38.66 19 39.32 19 40 19 C40.495 19.99 40.495 19.99 41 21 C42.2065625 20.9690625 42.2065625 20.9690625 43.4375 20.9375 C46 21 46 21 47 22 C47.04063832 23.66617115 47.042721 25.33388095 47 27 C46.01 27 45.02 27 44 27 C44 25.68 44 24.36 44 23 C43.22076172 23.34224609 43.22076172 23.34224609 42.42578125 23.69140625 C41.72839844 23.97886719 41.03101563 24.26632813 40.3125 24.5625 C39.62800781 24.85253906 38.94351563 25.14257812 38.23828125 25.44140625 C33.24657142 26.68715582 29.40924672 24.30999923 25.17578125 21.83203125 C24.06396484 21.18556641 22.95214844 20.53910156 21.80664062 19.87304688 C20.6418575 19.18631593 19.47714428 18.49946639 18.3125 17.8125 C17.17876953 17.15185547 16.04503906 16.49121094 14.87695312 15.81054688 C8.22088515 11.9243239 1.59867565 7.98281559 -5 4 C-3.35 2.68 -1.7 1.36 0 0 Z " fill="#FAF8F6" transform="translate(14,74)"/>
<path d="M0 0 C2.21070341 1.65802755 3.55817681 2.69814192 5 5 C5.43788102 8.37425965 5.29562191 11.61677147 5 15 C4.34 14.34 3.68 13.68 3 13 C2.21625 13.763125 1.4325 14.52625 0.625 15.3125 C-5.04179302 20.00593798 -12.39178206 21.53631958 -19.63671875 21.3046875 C-23.34983787 20.82597132 -26.85789565 19.78171716 -30.421875 18.65625 C-32.9937379 17.8734306 -32.9937379 17.8734306 -35.703125 18.09375 C-36.84007812 18.04734375 -36.84007812 18.04734375 -38 18 C-40.80908387 13.7863742 -40.69707949 9.95250658 -40 5 C-38 2.375 -38 2.375 -36 1 C-36.04640625 1.59167969 -36.0928125 2.18335937 -36.140625 2.79296875 C-36.31897572 6.69757552 -36.33457925 9.3308415 -34.5625 12.875 C-28.55441447 17.85731483 -21.56242413 18.54835174 -13.9453125 18.36328125 C-8.602524 17.70429009 -3.82679009 15.82679009 0 12 C0.24339551 9.10116917 0.24339551 9.10116917 0.125 5.875 C0.10695312 4.77929688 0.08890625 3.68359375 0.0703125 2.5546875 C0.04710937 1.71164063 0.02390625 0.86859375 0 0 Z " fill="#45546E" transform="translate(93,78)"/>
<path d="M0 0 C0.33 0.66 0.66 1.32 1 2 C1.99 2.33 2.98 2.66 4 3 C3.67 3.66 3.34 4.32 3 5 C0.4375 5.625 0.4375 5.625 -2 6 C-2 6.99 -2 7.98 -2 9 C-1.30028076 9.38744385 -0.60056152 9.7748877 0.12036133 10.17407227 C3.35304288 11.96669025 6.5827733 13.76456416 9.8125 15.5625 C10.91271484 16.17158203 12.01292969 16.78066406 13.14648438 17.40820312 C20.258533 21.37332758 27.18406402 25.54484315 34 30 C32.17675781 31.08007812 32.17675781 31.08007812 30 32 C27.69357909 30.95510213 25.83907195 29.89109231 23.75 28.5 C22.432976 27.65963914 21.11379939 26.82264629 19.79296875 25.98828125 C19.05095215 25.51729004 18.30893555 25.04629883 17.54443359 24.56103516 C14.62757043 22.77151078 11.66039225 21.09200232 8.67578125 19.41796875 C7.58491211 18.80179688 6.49404297 18.185625 5.37011719 17.55078125 C3.17719653 16.31544242 0.97864456 15.0900436 -1.22558594 13.875 C-2.23266602 13.30136719 -3.23974609 12.72773437 -4.27734375 12.13671875 C-5.64234009 11.37427856 -5.64234009 11.37427856 -7.03491211 10.59643555 C-7.68339111 10.06961182 -8.33187012 9.54278809 -9 9 C-9 7.68 -9 6.36 -9 5 C-6.03 3.35 -3.06 1.7 0 0 Z " fill="#D9A464" transform="translate(14,70)"/>
<path d="M0 0 C4.34684005 1.58066911 8.16641881 3.41970497 12 6 C12.9375 8.75 12.9375 8.75 13 11 C6.68284595 14.44572039 1.09629025 14.31461385 -6 14 C-5.01 13.67 -4.02 13.34 -3 13 C-2.95101562 12.31292969 -2.90203125 11.62585938 -2.8515625 10.91796875 C-2.77679688 10.01691406 -2.70203125 9.11585937 -2.625 8.1875 C-2.52058594 6.84751953 -2.52058594 6.84751953 -2.4140625 5.48046875 C-2 3 -2 3 0 0 Z " fill="#B598F4" transform="translate(76,83)"/>
<path d="M0 0 C-2.31 1.98 -4.62 3.96 -7 6 C-6.113125 5.608125 -5.22625 5.21625 -4.3125 4.8125 C-1 4 -1 4 1.875 5.375 C2.57625 5.91125 3.2775 6.4475 4 7 C-3.34210526 13.11842105 -3.34210526 13.11842105 -7.625 12.8125 C-10 12 -10 12 -12 9 C-13.60585493 9.62064937 -15.20962617 10.2466918 -16.8125 10.875 C-18.15248047 11.39707031 -18.15248047 11.39707031 -19.51953125 11.9296875 C-22.17711591 12.98832155 -22.17711591 12.98832155 -25 15 C-25.99 14.67 -26.98 14.34 -28 14 C-24.28530967 11.69329713 -20.56284128 9.3999872 -16.83105469 7.12109375 C-15.63698086 6.39000215 -14.44482194 5.65577096 -13.25488281 4.91796875 C-11.63431455 3.91462562 -10.00481602 2.9257503 -8.375 1.9375 C-7.41335937 1.34839844 -6.45171875 0.75929687 -5.4609375 0.15234375 C-3 -1 -3 -1 0 0 Z " fill="#B8BEC7" transform="translate(47,61)"/>
<path d="M0 0 C0 0.66 0 1.32 0 2 C-0.6705542 2.37809814 -1.3411084 2.75619629 -2.03198242 3.14575195 C-5.08421674 4.86730184 -8.13586354 6.58989058 -11.1875 8.3125 C-12.24259766 8.90740234 -13.29769531 9.50230469 -14.38476562 10.11523438 C-15.40634766 10.69208984 -16.42792969 11.26894531 -17.48046875 11.86328125 C-18.41785889 12.39219971 -19.35524902 12.92111816 -20.32104492 13.46606445 C-22.1312823 14.50258331 -23.91440524 15.58771843 -25.66918945 16.71557617 C-28 18 -28 18 -30.8125 17.6875 C-31.534375 17.460625 -32.25625 17.23375 -33 17 C-28.31194335 11.91407172 -22.47976298 9.03549159 -16.5 5.6875 C-15.35917969 5.02943359 -14.21835937 4.37136719 -13.04296875 3.69335938 C-11.94597656 3.07654297 -10.84898438 2.45972656 -9.71875 1.82421875 C-8.71779297 1.25791748 -7.71683594 0.69161621 -6.68554688 0.1081543 C-3.83328275 -1.0687936 -2.80224932 -1.15413687 0 0 Z " fill="#F9CA64" transform="translate(44,6)"/>
<path d="M0 0 C0.33 0.99 0.66 1.98 1 3 C-0.28813342 3.83878455 -1.58063256 4.67086783 -2.875 5.5 C-3.59429687 5.9640625 -4.31359375 6.428125 -5.0546875 6.90625 C-7 8 -7 8 -9 8 C-9.12375 8.969375 -9.2475 9.93875 -9.375 10.9375 C-9.684375 12.4534375 -9.684375 12.4534375 -10 14 C-10.99 14.495 -10.99 14.495 -12 15 C-12 13.68 -12 12.36 -12 11 C-19.92 11.495 -19.92 11.495 -28 12 C-28 13.32 -28 14.64 -28 16 C-28.66 15.67 -29.32 15.34 -30 15 C-29.67 12.36 -29.34 9.72 -29 7 C-27.11667969 6.99613281 -27.11667969 6.99613281 -25.1953125 6.9921875 C-15.4420105 6.81988144 -7.80787686 6.56343376 0 0 Z " fill="#6E92E9" transform="translate(86,71)"/>
<path d="M0 0 C2.475 0.99 2.475 0.99 5 2 C4.67 3.32 4.34 4.64 4 6 C3.34 5.67 2.68 5.34 2 5 C2.33 4.34 2.66 3.68 3 3 C2.443125 3.28875 1.88625 3.5775 1.3125 3.875 C-1.08494645 5.0413253 -3.51596939 6.0339881 -6 7 C-6 7.66 -6 8.32 -6 9 C-4.02 8.34 -2.04 7.68 0 7 C-2.79716804 10.29078593 -6.19528578 12.06305458 -10 14 C-10.66 13.67 -11.32 13.34 -12 13 C-11.01 12.34 -10.02 11.68 -9 11 C-12.38959367 12.28198327 -15.46120254 13.74972036 -18.57421875 15.6015625 C-19.40630859 16.09140625 -20.23839844 16.58125 -21.09570312 17.0859375 C-22.83566134 18.11916062 -24.57523973 19.15302363 -26.31445312 20.1875 C-27.55678711 20.91839844 -27.55678711 20.91839844 -28.82421875 21.6640625 C-29.57791748 22.11217285 -30.33161621 22.5602832 -31.1081543 23.02197266 C-33 24 -33 24 -35 24 C-35 23.34 -35 22.68 -35 22 C-31.42548451 19.9368208 -27.85085438 17.87384036 -24.27612305 15.81103516 C-23.06287623 15.11089299 -21.84965944 14.41069878 -20.63647461 13.71044922 C-19.45798803 13.03023589 -18.2794105 12.35018011 -17.10073853 11.67028809 C-15.40212829 10.68978925 -13.70471467 9.70721833 -12.00732422 8.72460938 C-9.6147292 7.35252858 -7.20712075 6.02179896 -4.78515625 4.703125 C-1.78914436 3.13922318 -1.78914436 3.13922318 0 0 Z " fill="#ABB3C9" transform="translate(55,50)"/>
<path d="M0 0 C0.99 0.33 1.98 0.66 3 1 C3 11.89 3 22.78 3 34 C2.01 33.67 1.02 33.34 0 33 C0 22.11 0 11.22 0 0 Z " fill="#F9A83D" transform="translate(11,23)"/>
<path d="M0 0 C0.99 0.66 1.98 1.32 3 2 C3.34057617 4.70556641 3.34057617 4.70556641 3.29296875 8.1015625 C3.28330078 9.31328125 3.27363281 10.525 3.26367188 11.7734375 C3.23853516 13.04445313 3.21339844 14.31546875 3.1875 15.625 C3.17396484 16.90375 3.16042969 18.1825 3.14648438 19.5 C3.11103196 22.66708282 3.06161441 25.83333541 3 29 C2.67 29 2.34 29 2 29 C1.67 21.08 1.34 13.16 1 5 C0.01 5.66 -0.98 6.32 -2 7 C-5.46418389 6.65358161 -7.04929881 5.96713413 -10 4 C-10 2 -10 2 -8.375 0.3125 C-5.1663506 -1.46070098 -3.47412766 -0.96092893 0 0 Z " fill="#F1546A" transform="translate(116,44)"/>
<path d="M0 0 C4.29 0 8.58 0 13 0 C12.67 2.64 12.34 5.28 12 8 C6.37458159 7.54996653 3.38512875 6.31558515 -1 3 C-0.67 2.01 -0.34 1.02 0 0 Z " fill="#77E65A" transform="translate(60,83)"/>
<path d="M0 0 C0.33 0.99 0.66 1.98 1 3 C-0.01320313 3.68835938 -0.01320313 3.68835938 -1.046875 4.390625 C-1.93890625 5.00421875 -2.8309375 5.6178125 -3.75 6.25 C-4.63171875 6.85328125 -5.5134375 7.4565625 -6.421875 8.078125 C-8.99310187 9.89641942 -8.99310187 9.89641942 -10.95703125 11.96875 C-13.42309482 14.42066789 -16.06405888 16.29330617 -18.9375 18.25 C-20.46697266 19.30960938 -20.46697266 19.30960938 -22.02734375 20.390625 C-25.06731994 22.03644654 -26.61608502 22.37391326 -30 22 C-25.91746113 18.62161997 -21.63409533 15.65130104 -17.25 12.6875 C-11.3325098 8.65806746 -5.55604658 4.52200458 0 0 Z " fill="#DF3462" transform="translate(57,98)"/>
<path d="M0 0 C2.21070341 1.65802755 3.55817681 2.69814192 5 5 C5.43788102 8.37425965 5.29562191 11.61677147 5 15 C4.34 14.34 3.68 13.68 3 13 C2.13375 13.78375 1.2675 14.5675 0.375 15.375 C-4.01888354 19.02450797 -8.28368679 20.33625372 -14 20 C-10.79473213 17.86315475 -7.59571722 16.48686964 -4.05859375 15 C-1.84569396 14.06374004 -1.84569396 14.06374004 0 12 C0.24339551 9.10116917 0.24339551 9.10116917 0.125 5.875 C0.10695313 4.77929688 0.08890625 3.68359375 0.0703125 2.5546875 C0.04710938 1.71164063 0.02390625 0.86859375 0 0 Z " fill="#525E70" transform="translate(93,78)"/>
<path d="M0 0 C2.75682069 1.02396197 5.09711187 2.06395172 7.5625 3.6875 C9.86467796 5.22636452 9.86467796 5.22636452 12.1875 4.75 C13.47957 4.21535034 14.74930575 3.62534713 16 3 C17.34261242 9.46895075 17.34261242 9.46895075 15.75 11.9375 C14 13 14 13 11 13 C10.93941406 12.40316406 10.87882812 11.80632812 10.81640625 11.19140625 C9.65038633 8.06156331 7.84538599 7.47119514 4.9375 5.9375 C2.15234375 4.46484375 2.15234375 4.46484375 0 3 C0 2.01 0 1.02 0 0 Z " fill="#FCCE6F" transform="translate(77,80)"/>
<path d="M0 0 C0 0.99 0 1.98 0 3 C-2.97 4.65 -5.94 6.3 -9 8 C-10.65 7.01 -12.3 6.02 -14 5 C-9.67519838 0.21995611 -6.42249375 -1.64296352 0 0 Z " fill="#F45B78" transform="translate(35,75)"/>
<path d="M0 0 C1.2065625 0.8971875 1.2065625 0.8971875 2.4375 1.8125 C-3.49867021 6.75930851 -3.49867021 6.75930851 -6.5625 7.8125 C-9.3125 7.4375 -9.3125 7.4375 -11.5625 6.8125 C-11.8925 5.8225 -12.2225 4.8325 -12.5625 3.8125 C-4.68503829 -1.56167943 -4.68503829 -1.56167943 0 0 Z " fill="#F9D173" transform="translate(48.5625,66.1875)"/>
<path d="M0 0 C2.125 0.875 2.125 0.875 4.125 1.875 C4.125 2.535 4.125 3.195 4.125 3.875 C-3.86735151 9.06393409 -3.86735151 9.06393409 -7.875 8.3125 C-9.875 6.875 -9.875 6.875 -10.875 4.875 C-3.84393617 -0.16712766 -3.84393617 -0.16712766 0 0 Z " fill="#7FE863" transform="translate(60.875,57.125)"/>
<path d="M0 0 C0.66 0.33 1.32 0.66 2 1 C1.6875 2.875 1.6875 2.875 1 5 C-2 7 -2 7 -4.5 6.75 C-7 6 -7 6 -10 4 C-7.54726106 -1.43106479 -5.67171617 -1.18160754 0 0 Z " fill="#FECE66" transform="translate(86,19)"/>
<path d="M0 0 C0.99 0.66 1.98 1.32 3 2 C3 2.99 3 3.98 3 5 C0.38930678 6.70699172 -0.95317812 7.00187288 -4.125 6.875 C-7 6 -7 6 -8.375 3.9375 C-8.58125 3.298125 -8.7875 2.65875 -9 2 C-5.53001271 -0.31332486 -4.07490752 -0.33957563 0 0 Z " fill="#8AA7FC" transform="translate(105,27)"/>
<path d="M0 0 C-0.33 1.65 -0.66 3.3 -1 5 C-5.46236469 6.80619523 -8.31034294 7.11658501 -13 6 C-13 4.68 -13 3.36 -13 2 C-11.58461283 1.66127487 -10.16762037 1.32925376 -8.75 1 C-7.56664063 0.7215625 -7.56664063 0.7215625 -6.359375 0.4375 C-4 0 -4 0 0 0 Z " fill="#8161EF" transform="translate(87,90)"/>
<path d="M0 0 C1.32 0 2.64 0 4 0 C4 0.66 4 1.32 4 2 C3.34 2 2.68 2 2 2 C2 2.99 2 3.98 2 5 C2.66 5 3.32 5 4 5 C3.125 10.75 3.125 10.75 2 13 C0.68 13 -0.64 13 -2 13 C-2 12.34 -2 11.68 -2 11 C-1.34 11 -0.68 11 0 11 C0 10.01 0 9.02 0 8 C-0.66 8 -1.32 8 -2 8 C-2.20086443 4.28400809 -2.1519437 3.22791555 0 0 Z " fill="#5C514B" transform="translate(20,31)"/>
<path d="M0 0 C1.4540625 0.0309375 1.4540625 0.0309375 2.9375 0.0625 C2.9375 2.0425 2.9375 4.0225 2.9375 6.0625 C0.02267222 6.87217438 -1.52363217 7.28095993 -4.375 6.125 C-4.931875 5.774375 -5.48875 5.42375 -6.0625 5.0625 C-3.64893617 0.07446809 -3.64893617 0.07446809 0 0 Z " fill="#78E35B" transform="translate(92.0625,31.9375)"/>
<path d="M0 0 C0.33 0.99 0.66 1.98 1 3 C-0.28813342 3.83878455 -1.58063256 4.67086783 -2.875 5.5 C-3.59429687 5.9640625 -4.31359375 6.428125 -5.0546875 6.90625 C-7 8 -7 8 -9 8 C-9.33 9.98 -9.66 11.96 -10 14 C-10.33 14 -10.66 14 -11 14 C-11.5625 10.875 -11.5625 10.875 -11 7 C-7.73133453 4.01527921 -3.9413285 1.97066425 0 0 Z " fill="#6974E6" transform="translate(86,71)"/>
<path d="M0 0 C0.99 0 1.98 0 3 0 C3 0.66 3 1.32 3 2 C2.34 2 1.68 2 1 2 C1 2.99 1 3.98 1 5 C1.66 5 2.32 5 3 5 C3 5.66 3 6.32 3 7 C2.67 7.33 2.34 7.66 2 8 C2 8.99 2 9.98 2 11 C1.34 11.66 0.68 12.32 0 13 C-0.99 13 -1.98 13 -3 13 C-3 12.34 -3 11.68 -3 11 C-2.01 11 -1.02 11 0 11 C0 9.68 0 8.36 0 7 C-0.99 7 -1.98 7 -3 7 C-2.38722388 4.03824877 -1.74627478 2.61941217 0 0 Z " fill="#534B4A" transform="translate(38,21)"/>
<path d="M0 0 C1.32 0.33 2.64 0.66 4 1 C3.01 1.33 2.02 1.66 1 2 C1 2.99 1 3.98 1 5 C1.99 5 2.98 5 4 5 C3.67 5.99 3.34 6.98 3 8 C2.34 7.67 1.68 7.34 1 7 C1.309375 7.928125 1.309375 7.928125 1.625 8.875 C1.74875 9.57625 1.8725 10.2775 2 11 C1.34 11.66 0.68 12.32 0 13 C-0.66 12.34 -1.32 11.68 -2 11 C-1.34 11 -0.68 11 0 11 C0 10.01 0 9.02 0 8 C-0.99 7.67 -1.98 7.34 -3 7 C-1.125 2.25 -1.125 2.25 0 0 Z " fill="#514A49" transform="translate(29,26)"/>
<path d="M0 0 C0.33 0.99 0.66 1.98 1 3 C-6.96479921 7.04313337 -6.96479921 7.04313337 -11 6.875 C-13 6 -13 6 -14 4 C-12.948125 3.896875 -11.89625 3.79375 -10.8125 3.6875 C-6.92375555 2.986251 -3.71238371 0 0 0 Z " fill="#C4C0CA" transform="translate(31,71)"/>
<path d="M0 0 C2 2 2 2 2.25 4.5 C2 7 2 7 0 9 C-0.99 9 -1.98 9 -3 9 C-3.36923077 3.46153846 -3.36923077 3.46153846 -1.5 1.125 C-1.005 0.75375 -0.51 0.3825 0 0 Z " fill="#F6C553" transform="translate(92,83)"/>
<path d="M0 0 C0.99 0.33 1.98 0.66 3 1 C0.90320896 2.36695222 -1.2010938 3.71846991 -3.3125 5.0625 C-3.90740234 5.45244141 -4.50230469 5.84238281 -5.11523438 6.24414062 C-6.69609635 7.24211495 -8.34594712 8.12868696 -10 9 C-10.99 8.67 -11.98 8.34 -13 8 C-10.90320896 6.63304778 -8.7989062 5.28153009 -6.6875 3.9375 C-6.09259766 3.54755859 -5.49769531 3.15761719 -4.88476562 2.75585938 C-3.30390365 1.75788505 -1.65405288 0.87131304 0 0 Z " fill="#F6F7F9" transform="translate(32,67)"/>
<path d="M0 0 C0.99 0.33 1.98 0.66 3 1 C2.67 2.98 2.34 4.96 2 7 C1.01 7.33 0.02 7.66 -1 8 C-1.33 7.34 -1.66 6.68 -2 6 C-3.32 6.33 -4.64 6.66 -6 7 C-6 6.34 -6 5.68 -6 5 C-4.34467377 3.98133771 -2.67739862 2.98189187 -1 2 C-0.67 1.34 -0.34 0.68 0 0 Z " fill="#EAEEEE" transform="translate(55,52)"/>
<path d="M0 0 C1.32 0 2.64 0 4 0 C4 0.66 4 1.32 4 2 C3.34 2 2.68 2 2 2 C2 2.99 2 3.98 2 5 C2.66 5.33 3.32 5.66 4 6 C2.35 6 0.7 6 -1 6 C-1.33 5.01 -1.66 4.02 -2 3 C-1.34 2.01 -0.68 1.02 0 0 Z " fill="#836A50" transform="translate(20,31)"/>
<path d="M0 0 C0.99 1.485 0.99 1.485 2 3 C3.32381517 4.67423683 4.65576661 6.34211215 6 8 C4.68 8.33 3.36 8.66 2 9 C-0.29013653 5.5647952 -0.17842973 4.014669 0 0 Z " fill="#1E2A3F" transform="translate(53,87)"/>
<path d="M0 0 C0 1.65 0 3.3 0 5 C-0.99 5 -1.98 5 -3 5 C-3 3.68 -3 2.36 -3 1 C-3.99 0.67 -4.98 0.34 -6 0 C-3.50907189 -1.24546405 -2.58919267 -0.7767578 0 0 Z " fill="#BEBAC9" transform="translate(61,96)"/>
<path d="M0 0 C0.33 0.99 0.66 1.98 1 3 C-0.65 3.33 -2.3 3.66 -4 4 C-4 4.66 -4 5.32 -4 6 C-5.65 5.67 -7.3 5.34 -9 5 C-2.87096774 0 -2.87096774 0 0 0 Z " fill="#F2F2FD" transform="translate(40,78)"/>
<path d="M0 0 C0 0.66 0 1.32 0 2 C-4.75 3.125 -4.75 3.125 -7 2 C-7 1.34 -7 0.68 -7 0 C-4.3333581 -1.33332095 -2.83319697 -0.67102033 0 0 Z " fill="#FEFEFF" transform="translate(57,72)"/>
<path d="M0 0 C-1.28813342 0.83878455 -2.58063256 1.67086783 -3.875 2.5 C-4.59429687 2.9640625 -5.31359375 3.428125 -6.0546875 3.90625 C-8 5 -8 5 -10 5 C-10 4.34 -10 3.68 -10 3 C-3.375 -1.125 -3.375 -1.125 0 0 Z " fill="#F6F7F9" transform="translate(47,61)"/>
<path d="M0 0 C0.33 0.66 0.66 1.32 1 2 C1.99 2.33 2.98 2.66 4 3 C3.67 3.66 3.34 4.32 3 5 C-0.0625 5.625 -0.0625 5.625 -3 6 C-2 4 -1 2 0 0 Z " fill="#BCA180" transform="translate(14,70)"/>
<path d="M0 0 C1.125 3.75 1.125 3.75 0 6 C-0.66 6 -1.32 6 -2 6 C-2.33 6.66 -2.66 7.32 -3 8 C-2.25 2.25 -2.25 2.25 0 0 Z " fill="#526078" transform="translate(56,79)"/>
</svg>
