<?xml version="1.0" encoding="UTF-8"?>
<svg version="1.1" xmlns="http://www.w3.org/2000/svg" width="512" height="512">
<path d="M0 0 C1.14816193 -0.00101212 1.14816193 -0.00101212 2.31951904 -0.00204468 C13.36982033 0.01346523 23.89974562 0.33338153 34.625 3.25 C35.2957959 3.43224121 35.9665918 3.61448242 36.65771484 3.80224609 C75.66025726 14.63678851 107.12750533 38.66287656 127.265625 73.80078125 C137.63108031 92.43472348 144.88471114 113.62244266 144.72265625 135.15234375 C144.72053383 136.23619102 144.72053383 136.23619102 144.71836853 137.3419342 C144.71282225 139.62383365 144.7002802 141.90563079 144.6875 144.1875 C144.68247804 145.74544128 144.67791636 147.30338412 144.67382812 148.86132812 C144.6628705 152.65759081 144.64564372 156.45377813 144.625 160.25 C145.25425385 160.24111755 145.88350769 160.23223511 146.53182983 160.2230835 C153.11862038 160.13415407 159.70523862 160.07407741 166.29248047 160.03027344 C168.74632706 160.01023676 171.20012637 159.98299968 173.65380859 159.94824219 C177.19380403 159.89937502 180.73316468 159.8769508 184.2734375 159.859375 C185.902173 159.82840729 185.902173 159.82840729 187.56381226 159.79681396 C197.6718925 159.79387844 205.6995665 162.69476747 213.515625 169.125 C222.15848894 177.83188515 224.92917228 187.02765845 224.89242554 198.92669678 C224.89695665 200.00282549 224.90148776 201.07895421 224.90615618 202.18769288 C224.91881774 205.79411753 224.91717865 209.40039151 224.91552734 213.00683594 C224.92151151 215.59244989 224.9283168 218.17806206 224.93588257 220.76367188 C224.95247853 227.05880784 224.95799149 233.35390635 224.95910732 239.64906237 C224.96005855 244.768023 224.96417255 249.88697131 224.97050858 255.00592804 C224.98811783 269.52893628 224.99734804 284.05191499 224.99584763 298.57493398 C224.99576772 299.35748115 224.9956878 300.14002833 224.99560547 300.94628906 C224.99552371 301.72979525 224.99544195 302.51330144 224.99535771 303.32055023 C224.99454509 316.01372212 225.01367746 328.70677526 225.0418822 341.3999128 C225.07063457 354.44276263 225.08442118 367.48555459 225.08269465 380.5284369 C225.08203152 387.84713141 225.0874899 395.16570146 225.10905075 402.48436737 C225.12920405 409.36923024 225.12856478 416.25382649 225.11401749 423.13870239 C225.1119269 425.66300083 225.11664504 428.18731566 225.1287384 430.711586 C225.14420081 434.16315479 225.13487491 437.61381899 225.11947632 441.06536865 C225.12976344 442.05935787 225.14005057 443.05334709 225.15064943 444.07745719 C225.04641869 454.68261546 221.17394928 463.7565577 213.625 471.25 C206.14138254 476.94973191 199.32823052 480.49591384 189.79263687 480.50726891 C189.12686729 480.51077498 188.4610977 480.51428105 187.77515328 480.51789337 C185.54632775 480.52719036 183.3177645 480.52228854 181.08892822 480.51742554 C179.47395291 480.52116266 177.85897941 480.52576443 176.24400878 480.53115618 C171.80743333 480.54339398 167.37093325 480.54312479 162.93434477 480.54076743 C158.14892635 480.54035946 153.36353215 480.55139655 148.578125 480.56088257 C139.20286705 480.57749799 129.82763425 480.58299237 120.45236281 480.58410732 C112.83149659 480.58505757 105.21063868 480.58916671 97.58977509 480.59550858 C75.98356526 480.61312272 54.37737531 480.62234721 32.77115825 480.62084763 C31.60627564 480.62076772 30.44139302 480.6206878 29.24121094 480.62060547 C28.07490606 480.62052371 26.90860118 480.62044195 25.70695373 480.62035771 C6.80593323 480.61954483 -12.09500758 480.63868245 -30.99600503 480.6668822 C-50.40308192 480.69560854 -69.81011994 480.70942262 -89.21721864 480.70769465 C-100.11294307 480.70703065 -111.00858396 480.71252746 -121.90428925 480.73405075 C-131.18143778 480.75225926 -140.45846491 480.75661259 -149.73562357 480.7430319 C-154.46801182 480.73650053 -159.20016715 480.73639123 -163.93253326 480.7537384 C-168.26788384 480.76946665 -172.60281674 480.76660806 -176.93815711 480.74917014 C-178.5034231 480.74609969 -180.06872024 480.74973435 -181.63394949 480.76089029 C-193.59243984 480.84045262 -202.85704929 479.11538853 -212.265625 471.375 C-220.90848894 462.66811485 -223.67917228 453.47234155 -223.64242554 441.57330322 C-223.64695665 440.49717451 -223.65148776 439.42104579 -223.65615618 438.31230712 C-223.66881774 434.70588247 -223.66717865 431.09960849 -223.66552734 427.49316406 C-223.67151151 424.90755011 -223.6783168 422.32193794 -223.68588257 419.73632812 C-223.70247853 413.44119216 -223.70799149 407.14609365 -223.70910732 400.85093763 C-223.71005855 395.731977 -223.71417255 390.61302869 -223.72050858 385.49407196 C-223.73811783 370.97106372 -223.74734804 356.44808501 -223.74584763 341.92506602 C-223.74576772 341.14251885 -223.7456878 340.35997167 -223.74560547 339.55371094 C-223.74552371 338.77020475 -223.74544195 337.98669856 -223.74535771 337.17944977 C-223.74454509 324.48627788 -223.76367746 311.79322474 -223.7918822 299.1000872 C-223.82063457 286.05723737 -223.83442118 273.01444541 -223.83269465 259.9715631 C-223.83203152 252.65286859 -223.8374899 245.33429854 -223.85905075 238.01563263 C-223.87920405 231.13076976 -223.87856478 224.24617351 -223.86401749 217.36129761 C-223.8619269 214.83699917 -223.86664504 212.31268434 -223.8787384 209.788414 C-223.89420081 206.33684521 -223.88487491 202.88618101 -223.86947632 199.43463135 C-223.87976344 198.44064213 -223.89005057 197.44665291 -223.90064943 196.42254281 C-223.79641869 185.81738454 -219.92394928 176.7434423 -212.375 169.25 C-202.82634357 161.97747679 -195.24128837 159.94434785 -183.4140625 160.0546875 C-182.26835785 160.0575174 -181.1226532 160.06034729 -179.94223022 160.06326294 C-176.29471245 160.07442865 -172.64744315 160.09952701 -169 160.125 C-166.52213897 160.13503445 -164.04427408 160.14415949 -161.56640625 160.15234375 C-155.50251986 160.1743562 -149.43877769 160.20779806 -143.375 160.25 C-143.39071045 159.33935791 -143.4064209 158.42871582 -143.42260742 157.49047852 C-144.07329061 114.06492581 -134.27865546 75.36995362 -103.3671875 43.27734375 C-75.68807433 15.10935736 -39.40097163 0.03102273 0 0 Z M-55.98828125 87.86962891 C-59.51844975 91.38363818 -62.53544063 95.16650522 -65.375 99.25 C-65.91640625 100.02730469 -66.4578125 100.80460937 -67.015625 101.60546875 C-78.7319711 119.74213582 -79.375 139.27074939 -79.375 160.25 C-26.575 160.25 26.225 160.25 80.625 160.25 C80.625 131.43823879 76.50700129 107.22802747 55.625 86.25 C52.44782929 83.31871049 49.17269759 80.71697951 45.625 78.25 C44.84769531 77.70859375 44.07039063 77.1671875 43.26953125 76.609375 C11.67718733 56.20061775 -29.40257695 62.63588792 -55.98828125 87.86962891 Z M-24.375 276.25 C-30.26817457 285.58406952 -32.528173 293.47657219 -30.30078125 304.37109375 C-27.93319147 311.73359869 -23.1388425 318.16425662 -17.375 323.25 C-15.85179465 324.77320535 -16.2356292 326.13526995 -16.21728516 328.25976562 C-16.20702301 329.11155396 -16.19676086 329.96334229 -16.18618774 330.84094238 C-16.17888641 331.7699939 -16.17158508 332.69904541 -16.1640625 333.65625 C-16.13596795 335.61719548 -16.10730336 337.57813285 -16.078125 339.5390625 C-16.03704032 342.63508657 -16.00016312 345.73096364 -15.97363281 348.82714844 C-15.94582503 351.81217003 -15.89992448 354.7964997 -15.8515625 357.78125 C-15.84830963 358.69410767 -15.84505676 359.60696533 -15.84170532 360.54748535 C-15.72316706 366.82273511 -15.29270868 373.97937881 -10.92349243 378.8770752 C-6.17200022 382.92640615 -2.98032491 383.60601286 3.0859375 383.52734375 C6.84960402 383.11623556 8.84290187 381.7671364 11.625 379.25 C16.92973335 372.51155494 16.75646279 366.52686601 16.765625 358.3125 C16.78394349 356.34634249 16.80351291 354.38019631 16.82421875 352.4140625 C16.85323722 349.32630094 16.87500169 346.23927425 16.87548828 343.15136719 C16.8788206 340.16275427 16.91334189 337.17582124 16.953125 334.1875 C16.9460553 333.26654541 16.9389856 332.34559082 16.93170166 331.39672852 C17.01831559 326.83584077 17.09973333 324.89660759 20.06103516 321.2512207 C20.90714355 320.59081787 21.75325195 319.93041504 22.625 319.25 C29.90177821 310.8498482 32.25529379 303.89395768 31.96875 292.71875 C31.10699742 284.02288311 27.29230215 276.9027127 20.625 271.25 C6.37324023 261.20508498 -12.97190598 262.60047204 -24.375 276.25 Z " fill="#9265FF" transform="translate(255.375,15.75)"/>
</svg>
