<?xml version="1.0" encoding="UTF-8"?>
<svg version="1.1" xmlns="http://www.w3.org/2000/svg" width="512" height="512">
<path d="M0 0 C6.5898178 4.34893679 6.5898178 4.34893679 9.3671875 6.98828125 C9.93848389 7.52606201 10.50978027 8.06384277 11.09838867 8.61791992 C11.68467041 9.17713135 12.27095215 9.73634277 12.875 10.3125 C14.11770238 11.48260743 15.36118553 12.65188625 16.60546875 13.8203125 C17.19505371 14.37493164 17.78463867 14.92955078 18.39208984 15.50097656 C20.87779798 17.81835403 23.43929952 20.04183663 26.01171875 22.26171875 C28.54052928 24.47256489 31.01872564 26.73596443 33.5 29 C37.28934126 32.45575413 41.11083698 35.8652289 44.98046875 39.23046875 C49.89736556 43.53869748 54.72639032 47.94686156 59.578125 52.328125 C63.36474959 55.74305638 67.15583617 59.14986526 71 62.5 C76.58979989 67.37143203 82.07534898 72.3589515 87.578125 77.328125 C91.36474959 80.74305638 95.15583617 84.14986526 99 87.5 C104.58979989 92.37143203 110.07534898 97.3589515 115.578125 102.328125 C120.00121401 106.31704577 124.44615005 110.27567907 128.9375 114.1875 C132.1751333 117.0326929 135.3668629 119.92853836 138.56640625 122.81640625 C140.67511146 124.70848685 142.79919801 126.57905758 144.9375 128.4375 C149.13164365 132.08937053 153.23094292 135.84266184 157.33984375 139.58984375 C160.19027034 142.17238884 163.07825892 144.70655103 165.98046875 147.23046875 C170.89736556 151.53869748 175.72639032 155.94686156 180.578125 160.328125 C184.36474959 163.74305638 188.15583617 167.14986526 192 170.5 C197.58979989 175.37143203 203.07534898 180.3589515 208.578125 185.328125 C211.04855198 187.55605608 213.5226493 189.77977137 216 192 C216.68964844 192.61875 217.37929687 193.2375 218.08984375 193.875 C230.46878098 205.19450028 230.46878098 205.19450028 246.43359375 208.29296875 C256.58921275 207.13365151 262.99702486 199.73399941 270 193 C271.36530204 191.78071957 272.73895055 190.57064266 274.125 189.375 C277.11397458 186.78290171 280.06321535 184.15113994 283 181.5 C285.95869751 178.82951656 288.92926472 176.17701942 291.9375 173.5625 C295.16559512 170.75177475 298.33738443 167.884201 301.5 165 C305.28662998 161.54671847 309.1047632 158.13900949 312.97265625 154.77734375 C315.33489173 152.70640513 317.66795853 150.60487152 320 148.5 C322.95869751 145.82951656 325.92926472 143.17701942 328.9375 140.5625 C332.16559512 137.75177475 335.33738443 134.884201 338.5 132 C342.28934126 128.54424587 346.11083698 125.1347711 349.98046875 121.76953125 C354.02665089 118.22423046 358.00743187 114.60541001 362 111 C367.27985576 106.23213025 372.57291806 101.48487782 377.9375 96.8125 C381.1751333 93.9673071 384.3668629 91.07146164 387.56640625 88.18359375 C389.67511146 86.29151315 391.79919801 84.42094242 393.9375 82.5625 C397.16559512 79.75177475 400.33738443 76.884201 403.5 74 C407.28662998 70.54671847 411.1047632 67.13900949 414.97265625 63.77734375 C417.33489173 61.70640513 419.66795853 59.60487152 422 57.5 C424.95869751 54.82951656 427.92926472 52.17701942 430.9375 49.5625 C434.16559512 46.75177475 437.33738443 43.884201 440.5 41 C444.28662998 37.54671847 448.1047632 34.13900949 451.97265625 30.77734375 C454.33489173 28.70640513 456.66795853 26.60487152 459 24.5 C462.58813952 21.26139006 466.20531806 18.06231607 469.859375 14.8984375 C471.51702089 13.42833549 473.1472503 11.92728856 474.765625 10.4140625 C475.72984375 9.51429688 476.6940625 8.61453125 477.6875 7.6875 C478.57824219 6.84574219 479.46898437 6.00398438 480.38671875 5.13671875 C482.92273055 3.06317846 484.96563373 2.12516622 488 1 C488.06869814 36.24532618 488.12154504 71.49063878 488.15319599 106.73601785 C488.15694801 110.89904456 488.16083099 115.06207114 488.16479492 119.22509766 C488.16558185 120.05386546 488.16636878 120.88263326 488.16717956 121.73651524 C488.18022599 135.14782251 488.20387563 148.55909111 488.23145839 161.97037546 C488.25953382 175.7362324 488.27618078 189.50206912 488.28226548 203.26795352 C488.28637749 211.75913929 488.29935513 220.25021577 488.3237494 228.74136789 C488.33963299 234.56765341 488.34439443 240.3938826 488.34050413 246.22018819 C488.33858663 249.57943637 488.34313338 252.93834046 488.35761642 256.29758072 C488.37257511 259.94637168 488.36894078 263.59469769 488.36076355 267.24349976 C488.36950207 268.29605497 488.3782406 269.34861018 488.38724393 270.433061 C488.32448687 280.81661131 485.95852511 290.06910457 479 298 C468.32462562 307.36651622 455.93771161 307.43791403 442.46435547 307.38095093 C440.68093518 307.38441079 438.89751702 307.38917756 437.11410332 307.39513266 C432.23046447 307.40762713 427.34700207 307.40147931 422.46336269 307.39217401 C417.18993894 307.38537751 411.91654521 307.39586773 406.64312744 307.40411377 C396.31923057 307.41744686 385.99539916 307.41457523 375.67149973 307.40587585 C367.28032297 307.39909806 358.88916455 307.398183 350.49798584 307.4014473 C349.30327191 307.401907 348.10855798 307.40236669 346.8776406 307.40284032 C344.45052925 307.40379951 342.0234179 307.40477215 339.59630656 307.4057581 C316.84242629 307.41431075 294.0885823 307.4044798 271.33470798 307.388357 C251.81491736 307.37495394 232.29518027 307.37728207 212.77539062 307.39111328 C190.10239086 307.40717128 167.42942288 307.41348679 144.75641823 307.40427649 C142.33828354 307.40332085 139.92014885 307.40237774 137.50201416 307.4014473 C135.7174062 307.40075306 135.7174062 307.40075306 133.89674556 307.40004479 C125.51658482 307.39745557 117.13644424 307.40182446 108.75628662 307.40888596 C98.54234272 307.41730357 88.32846798 307.41501525 78.11453199 307.39904372 C72.90419935 307.3911646 67.69398198 307.38806339 62.48365021 307.39799118 C57.71182142 307.40694587 52.9402145 307.40199236 48.16840577 307.38605852 C46.44444887 307.38271402 44.72047313 307.38439734 42.99652839 307.39168589 C30.32319038 307.44114652 18.95228361 306.73208026 9 298 C1.13850742 289.03995823 -0.45648247 278.7774992 -0.36076355 267.20553589 C-0.36332682 266.05768053 -0.3658901 264.90982517 -0.36853105 263.72718632 C-0.3734504 259.90245142 -0.35700605 256.07811617 -0.34057617 252.25341797 C-0.3380559 249.50320691 -0.3400739 246.75300351 -0.34190369 244.00279236 C-0.34347219 238.09283225 -0.33410742 232.18297196 -0.31719017 226.27303696 C-0.29274711 217.72841526 -0.28498949 209.18384153 -0.2812262 200.63918866 C-0.27467001 186.77408023 -0.25473152 172.90902492 -0.22631836 159.04394531 C-0.19875618 145.58008082 -0.17753318 132.11623078 -0.16479492 118.65234375 C-0.16400675 117.82159922 -0.16321858 116.99085469 -0.16240653 116.13493608 C-0.15849124 111.96708663 -0.15470016 107.79923709 -0.15097082 103.63138747 C-0.11990087 69.08755342 -0.06708784 34.54378245 0 0 Z " fill="#784BD1" transform="translate(12,120)"/>
<path d="M0 0 C138.6 0 277.2 0 420 0 C418.19698651 3.60602699 417.41704942 4.76658808 414.5 7.1875 C411.28383089 9.90842568 408.12239599 12.67153327 405 15.5 C402.04130249 18.17048344 399.07073528 20.82298058 396.0625 23.4375 C392.83440488 26.24822525 389.66261557 29.115799 386.5 32 C382.71337002 35.45328153 378.8952368 38.86099051 375.02734375 42.22265625 C372.66510827 44.29359487 370.33204147 46.39512848 368 48.5 C365.04130249 51.17048344 362.07073528 53.82298058 359.0625 56.4375 C355.83440488 59.24822525 352.66261557 62.115799 349.5 65 C345.71065874 68.45575413 341.88916302 71.8652289 338.01953125 75.23046875 C333.97334911 78.77576954 329.99256813 82.39458999 326 86 C320.72014424 90.76786975 315.42708194 95.51512218 310.0625 100.1875 C306.8248667 103.0326929 303.6331371 105.92853836 300.43359375 108.81640625 C298.32488854 110.70848685 296.20080199 112.57905758 294.0625 114.4375 C290.83440488 117.24822525 287.66261557 120.115799 284.5 123 C280.71065874 126.45575413 276.88916302 129.8652289 273.01953125 133.23046875 C268.97334911 136.77576954 264.99256813 140.39458999 261 144 C255.71740942 148.77033937 250.42065865 153.51894407 245.0546875 158.1953125 C241.00030997 161.75638173 237.0048707 165.3834804 233 169 C214.68785125 185.53642523 214.68785125 185.53642523 211 188 C206.46023916 187.26382257 203.91473154 184.0951549 200.87109375 180.9140625 C198.45014405 178.43751688 195.85552201 176.20970406 193.234375 173.94921875 C190.62148624 171.66979306 188.06069979 169.33787647 185.5 167 C181.71065874 163.54424587 177.88916302 160.1347711 174.01953125 156.76953125 C169.10263444 152.46130252 164.27360968 148.05313844 159.421875 143.671875 C155.63525041 140.25694362 151.84416383 136.85013474 148 133.5 C142.41020011 128.62856797 136.92465102 123.6410485 131.421875 118.671875 C127.63525041 115.25694362 123.84416383 111.85013474 120 108.5 C114.41020011 103.62856797 108.92465102 98.6410485 103.421875 93.671875 C99.63525041 90.25694362 95.84416383 86.85013474 92 83.5 C86.41020011 78.62856797 80.92465102 73.6410485 75.421875 68.671875 C71.63525041 65.25694362 67.84416383 61.85013474 64 58.5 C58.41020011 53.62856797 52.92465102 48.6410485 47.421875 43.671875 C43.63525041 40.25694362 39.84416383 36.85013474 36 33.5 C30.41020011 28.62856797 24.92465102 23.6410485 19.421875 18.671875 C10.89025817 10.69331565 10.89025817 10.69331565 1.7734375 3.4296875 C1.18820313 2.95789063 0.60296875 2.48609375 0 2 C0 1.34 0 0.68 0 0 Z " fill="#784BD1" transform="translate(46,85)"/>
</svg>
