<?xml version="1.0" encoding="UTF-8"?>
<svg version="1.1" xmlns="http://www.w3.org/2000/svg" width="512" height="512">
<path d="M0 0 C1.46009699 0.81493786 2.89508155 1.67540818 4.3125 2.5625 C22.2705802 13.72273762 42.19176183 19.83865769 63 23 C63.82757813 23.13148438 64.65515625 23.26296875 65.5078125 23.3984375 C99.37667222 27.76480617 132.86477238 18.81991684 162.328125 2.48046875 C163.65070313 1.74763672 163.65070313 1.74763672 165 1 C165.65484375 0.58363281 166.3096875 0.16726562 166.984375 -0.26171875 C173.08835648 -2.49747941 180.44137908 2.12970769 185.97265625 4.5390625 C187.06436127 5.00832657 188.15606628 5.47759064 189.28085327 5.96107483 C192.25805097 7.24249398 195.23259811 8.52983081 198.20594406 9.8201561 C201.32107243 11.17060939 204.43917011 12.51417377 207.55688477 13.85864258 C212.74977614 16.09915886 217.94045545 18.34473501 223.12988281 20.59326172 C229.56834037 23.38272782 236.01195066 26.16007252 242.45747375 28.9331665 C247.29678842 31.01537228 252.13377088 33.10297578 256.97042847 35.19134521 C259.26749201 36.18260328 261.56511346 37.17256956 263.86331177 38.16119385 C267.07625148 39.54426507 270.28648773 40.93343203 273.49609375 42.32421875 C274.43125824 42.72536392 275.36642273 43.12650909 276.32992554 43.53981018 C289.74042268 49.37271548 298.95064459 55.14371848 305.7734375 68.484375 C309.4246408 78.9496074 309.29381925 89.85470769 309.2746582 100.79663086 C309.27901444 102.45529406 309.28420061 104.11395526 309.29014587 105.77261353 C309.30343935 110.24112742 309.30412611 114.70955626 309.30158257 119.17808604 C309.3005077 122.91615742 309.30540863 126.65421194 309.310188 130.39227968 C309.32124663 139.20660118 309.32173915 148.02088002 309.31567383 156.83520508 C309.30961683 165.92287577 309.32199701 175.0103923 309.3432439 184.09803671 C309.36084813 191.91571187 309.36686369 199.73333787 309.36360615 207.55103213 C309.36179355 212.2140715 309.36442856 216.87700052 309.37832069 221.5400219 C309.39087762 225.91747586 309.38897534 230.29468804 309.37590981 234.67213821 C309.37354098 236.27776864 309.37628966 237.88341601 309.38453293 239.48902702 C309.39497509 241.68082745 309.38692141 243.87181239 309.3742218 246.06358337 C309.37447341 247.90268736 309.37447341 247.90268736 309.37473011 249.77894497 C308.94567743 253.46693867 308.36526591 255.14131578 306 258 C303.35142124 258.51410117 301.32815033 258.67316489 298.67388916 258.6292057 C297.54052305 258.64010651 297.54052305 258.64010651 296.38426065 258.65122753 C293.83152363 258.66959491 291.28026715 258.65206897 288.72753906 258.63491821 C286.88741915 258.6406748 285.04730497 258.64861279 283.20720291 258.65855443 C278.13451575 258.67951466 273.06229617 258.66907107 267.98960686 258.65362334 C262.52530551 258.64235115 257.06108688 258.65975195 251.59680176 258.67352295 C240.88590178 258.69580417 230.17517658 258.69093244 219.46426964 258.67645974 C210.76250138 258.66518668 202.06078225 258.66362821 193.35900879 258.66907883 C192.12247031 258.66984499 190.88593184 258.67061116 189.6119225 258.67140054 C187.10024228 258.6729991 184.58856208 258.67462016 182.07688189 258.6762635 C159.17461529 258.69012813 136.27242525 258.67572835 113.37017661 258.64955051 C92.45116033 258.62582142 71.53229621 258.62794451 50.61328125 258.65185547 C27.12515459 258.67861307 3.63709494 258.68916188 -19.85104752 258.67379415 C-22.35370126 258.67220134 -24.85635502 258.67062948 -27.35900879 258.66907883 C-28.59049487 258.66830745 -29.82198095 258.66753607 -31.09078479 258.66674132 C-39.78625192 258.66241673 -48.48166522 258.6697272 -57.17712402 258.68147659 C-67.76807237 258.69547206 -78.35883535 258.69176395 -88.94976234 258.66507287 C-94.35772027 258.65189488 -99.76536866 258.64684993 -105.17332458 258.66331863 C-110.11790951 258.67814897 -115.06189618 258.67014503 -120.00642633 258.64343087 C-121.80112312 258.63781639 -123.59586981 258.64075218 -125.39053488 258.65280981 C-127.81905161 258.66788237 -130.24548384 258.6525623 -132.67388916 258.6292057 C-133.73408839 258.64676445 -133.73408839 258.64676445 -134.81570578 258.66467792 C-136.77109146 258.62674582 -136.77109146 258.62674582 -140 258 C-143.22259246 254.10897604 -143.37489194 250.941749 -143.3742218 245.97419739 C-143.38018341 244.93094151 -143.38018341 244.93094151 -143.38626546 243.86660975 C-143.39586969 241.54212983 -143.38408187 239.21826142 -143.37231445 236.89379883 C-143.37474315 235.22457655 -143.37846324 233.55535573 -143.38337708 231.88613892 C-143.39278262 227.35483866 -143.38336149 222.82375455 -143.37004495 218.29247117 C-143.35871923 213.54456444 -143.36283907 208.79666819 -143.36479187 204.04875183 C-143.36567492 196.07014442 -143.35459573 188.09162195 -143.33618164 180.11303711 C-143.31505011 170.90464505 -143.31149639 161.69637774 -143.3177436 152.48796636 C-143.32345223 143.61769524 -143.31777162 134.74746781 -143.30657005 125.87720299 C-143.30194018 122.10911941 -143.30104327 118.3410627 -143.3031559 114.57297707 C-143.30504901 110.12668552 -143.29685669 105.68051965 -143.2810955 101.23425674 C-143.27687652 99.60816277 -143.27598591 97.98205598 -143.27878571 96.35595894 C-143.30072637 81.32505577 -142.09030887 67.55820249 -131.625 55.75 C-128.06772866 52.57777156 -124.24824426 50.40770765 -119.9921875 48.328125 C-119.29589233 47.98450928 -118.59959717 47.64089355 -117.88220215 47.28686523 C-108.8850577 42.89982377 -99.69141244 38.95817024 -90.5 35 C-88.53398018 34.14960573 -86.56808163 33.29893105 -84.60229492 32.44799805 C-78.07169488 29.62385743 -71.53615232 26.81126173 -65 24 C-63.75945089 23.46618839 -62.51891154 22.9323541 -61.27838135 22.39849854 C-52.92186007 18.80257345 -44.563507 15.21093265 -36.20321655 11.6237793 C-34.94140331 11.08235337 -33.67962359 10.5408493 -32.4178772 9.99926758 C-28.254706 8.21234243 -24.09051396 6.42781499 -19.92578125 4.64453125 C-18.86228958 4.18818802 -17.79879791 3.73184479 -16.70307922 3.26167297 C-15.24190926 2.6367823 -15.24190926 2.6367823 -13.7512207 1.99926758 C-12.90179398 1.63545486 -12.05236725 1.27164215 -11.17720032 0.89680481 C-6.82292623 -0.89675268 -4.58410017 -1.25020914 0 0 Z " fill="#6C26B2" transform="translate(173,254)"/>
<path d="M0 0 C0.68900391 0.21430664 1.37800781 0.42861328 2.08789062 0.64941406 C21.26025471 6.82158563 37.37941238 17.21207566 52 31 C52.67675781 31.61230469 53.35351562 32.22460938 54.05078125 32.85546875 C69.53364968 47.40750341 79.53512618 67.71621002 85 88 C85.17789063 88.65838867 85.35578125 89.31677734 85.5390625 89.99511719 C93.02565092 119.42156888 88.02628326 153.08870261 73.125 179.4375 C55.69448534 208.24301463 29.94803427 229.21349816 -2.6875 238.3125 C-5.11904526 238.90020752 -7.55643489 239.46446095 -10 240 C-10.98484375 240.22558594 -11.9696875 240.45117188 -12.984375 240.68359375 C-44.27933398 246.68593377 -78.13972011 239.24545128 -104.43310547 221.48461914 C-132.02586721 202.06677944 -150.37037936 174.30073379 -156.91943359 141.12084961 C-159.79133629 123.9109149 -159.5687949 104.9095072 -155 88 C-154.80664062 87.28231445 -154.61328125 86.56462891 -154.4140625 85.82519531 C-148.56991898 65.00092466 -137.7956032 47.68912097 -123 32 C-122.38769531 31.32324219 -121.77539062 30.64648438 -121.14453125 29.94921875 C-106.85705043 14.74782658 -86.81207556 4.77050745 -67 -1 C-65.845 -1.3403125 -64.69 -1.680625 -63.5 -2.03125 C-43.80934778 -6.69482552 -19.29471251 -6.06537135 0 0 Z " fill="#6B26B3" transform="translate(291,4)"/>
</svg>
